<?xml version="1.0" encoding="utf-8"?>
<!-- Generator: Adobe Illustrator 24.0.0, SVG Export Plug-In . SVG Version: 6.00 Build 0)  -->
<svg version="1.1" id="fb8df35c-97a2-484c-ac16-3c830d03619c"
	 xmlns="http://www.w3.org/2000/svg" xmlns:xlink="http://www.w3.org/1999/xlink" x="0px" y="0px" viewBox="0 0 1028 577"
	 style="enable-background:new 0 0 1028 577;" xml:space="preserve">
<style type="text/css">
	.st0{fill:#F2F2F2;}
	.st1{fill:#3F3D56;}
	.st2{fill:#CBCEDA;}
	.st3{fill:#6C63FF;}
	.st4{opacity:0.2;fill:#6C63FF;enable-background:new    ;}
	.st5{fill:none;stroke:#6C63FF;stroke-width:2;stroke-miterlimit:10;}
	.st6{fill:none;stroke:#6C63FF;stroke-miterlimit:10;}
	.st7{fill:url(#SVGID_1_);}
	.st8{fill:#575A89;}
	.st9{fill:#3C354C;}
	.st10{fill:#FFC1C7;}
	.st11{opacity:0.1;enable-background:new    ;}
	.st12{fill:#FF6584;}
	.st13{fill:url(#SVGID_2_);}
	.st14{fill:#A0616A;}
	.st15{fill:none;stroke:#3F3D56;stroke-width:4;stroke-miterlimit:10;}
	.st16{fill:#57B894;}
	.st17{fill:#656380;}
	.st18{opacity:0.2;enable-background:new    ;}
</style>
<title>growth analytics</title>
<path class="st0" d="M126.1,41.5L126.1,41.5c0,0.4,0.2,0.8,0.3,1.3c0.2,0.8,0.4,1.6,0.6,2.4c0.3,1,0.6,2,0.9,3
	c0.2,0.7,0.5,1.5,0.8,2.2c0.4,1.1,0.9,2.1,1.3,3.1c0.3,0.6,0.5,1.2,0.8,1.8c0.8,1.5,1.6,3.1,2.5,4.5c0.3,0.5,0.7,1,1,1.5
	c0.6,1,1.3,2,2,2.9c0.4,0.6,0.9,1.2,1.3,1.7c0.7,0.8,1.3,1.6,2,2.4c0.5,0.6,1,1.1,1.5,1.7c0.7,0.8,1.5,1.5,2.3,2.3
	c0.5,0.5,1,1,1.6,1.5c0.9,0.8,1.8,1.5,2.7,2.3c0.5,0.4,0.9,0.8,1.4,1.1c1.4,1,2.9,2,4.4,3c0.3,0.2,0.6,0.3,0.9,0.5
	c1.3,0.7,2.6,1.5,3.9,2.1c0.6,0.3,1.1,0.5,1.7,0.8c1.1,0.5,2.2,1,3.3,1.4l2,0.7c1.1,0.4,2.2,0.7,3.4,1c0.7,0.2,1.3,0.4,2,0.5
	c1.2,0.3,2.5,0.5,3.7,0.8l0.2,0c-0.8,14.8-1.6,29.6-2.2,44.4c-14.5-29.7-50.3-42.1-80-27.6c-1,0.5-2.1,1-3.1,1.6l10.6,29l-21.8-20.9
	c-11.7,10.7-18.6,25.5-19.3,41.3c-0.3,5.5,0.2,11.1,1.5,16.5c7.6,32.2,39.8,52.1,71.9,44.6c16-3.8,29.8-14,38.1-28.3
	c0,1.5-0.1,3-0.1,4.5c-0.4,15.5-0.9,34.9,6.9,52.1c5.2,11.7,13.7,21.2,22,29.7c5.4,5.5,11.1,10.9,16.8,16.1
	c5.7,7.6,13.1,13.8,21.6,18c9.5,7.3,19.3,14.2,29.5,20.5l6.3,3.9c5.7,3.5,11.5,7.2,17.3,10.9c-1-0.1-2-0.2-3-0.3
	c-26-1.2-49.9,14.6-58.9,39l37.4,30.4l-41.1-9.5c0,33.1,26.9,59.9,60,59.8c9,0,17.8-2,25.9-5.9l-2.7,3.5c-1.8,2.3-3.7,4.6-5.5,6.8
	c-24.3,30.8-31.1,60.1-19.1,82.4l14.7-7.9c-11.8-21.7,5.9-49.5,17.4-64.1c1.8-2.2,3.5-4.5,5.4-6.7c15.5-19.3,33.2-41.2,32.7-68.1
	c-0.7-40.5-40-64.9-71.5-84.4l-6.3-3.9c-0.6-0.4-1.2-0.8-1.8-1.2c32.6-5.6,54.4-36.6,48.8-69.1c-3.9-22.8-20.6-41.2-42.8-47.5
	l0.3,24.7l-13.5-26.8h-0.2c-33-1.5-61,24-62.6,57c-0.1,1.1,0,2.3,0,3.4c-4.7-5.4-9-11.1-11.8-17.5c-5.7-12.8-5.8-27.3-5.4-44.9
	c0.9-34.9,2.4-70.1,4.4-105.1c29.2-3.3,51.8-27.3,53.2-56.6c0.1-1.8,0-3.6,0-5.4c0-0.5,0-0.9-0.1-1.3c-0.1-1.7-0.3-3.5-0.5-5.2
	c0-0.3-0.1-0.5-0.1-0.8"/>
<path class="st0" d="M168.1,3.5"/>
<path class="st0" d="M689.9,41.7c18-37.1,62.7-52.5,99.8-34.4c1.3,0.6,2.6,1.3,3.9,2l-13.1,36.2l27.2-26.1
	c14.6,13.3,23.2,31.9,24.1,51.6c0.3,6.9-0.3,13.8-1.9,20.5c-9.4,40.1-49.6,65.1-89.7,55.7c-20.1-4.7-37.3-17.5-47.6-35.3
	c0,1.9,0.1,3.8,0.2,5.6c0.5,19.4,1.1,43.5-8.5,65.1c-6.5,14.6-17.1,26.5-27.5,37.1c-6.8,6.9-13.8,13.6-21,20.1
	c-7.1,9.5-16.4,17.2-27,22.4c-11.8,9.1-24.1,17.7-36.7,25.6l-7.9,4.9c-7.1,4.4-14.4,8.9-21.5,13.6c1.3-0.1,2.5-0.3,3.8-0.3
	c32.5-1.5,62.2,18.1,73.5,48.6l-46.7,38l51.3-11.9c-0.1,41.3-33.6,74.7-74.8,74.6c-11.2,0-22.2-2.5-32.2-7.4
	c1.2,1.4,2.3,2.9,3.5,4.3c2.3,2.8,4.6,5.7,6.8,8.5c30.4,38.5,38.8,75,23.8,102.8l-18.3-9.9c14.6-27.1-7.4-61.8-21.8-80
	c-2.2-2.8-4.4-5.6-6.7-8.4c-19.4-24.1-41.4-51.4-40.8-84.9c0.8-50.6,49.9-81,89.3-105.4l7.8-4.9c0.8-0.5,1.5-1,2.2-1.4
	c-34.5-5.9-60.3-35.1-62-70.1c-0.6-11.7,1.6-23.3,6.5-34c9.1-20.2,26.7-35.4,48-41.4l-0.4,30.8l16.9-33.5h0.2
	c41.2-1.9,76.2,29.9,78.1,71.1c0.1,1.4,0,2.8,0,4.2c5.9-6.7,11.2-13.9,14.8-21.8c7.2-16,7.3-34,6.7-56"/>
<path class="st1" d="M878.7,26.2v350.6c0,4-3.2,7.2-7.2,7.2c0,0,0,0,0,0H156.9c-4,0-7.2-3.2-7.2-7.2c0,0,0,0,0,0V26.2
	c0-4,3.2-7.2,7.2-7.2c0,0,0,0,0,0h714.6C875.4,19,878.7,22.2,878.7,26.2z"/>
<path class="st2" d="M878.7,23.8V40h-729V23.8c0-2.7,2.2-4.8,4.8-4.8h719.4C876.5,19,878.7,21.2,878.7,23.8z"/>
<circle class="st3" cx="165.7" cy="29" r="5"/>
<circle class="st3" cx="179.7" cy="29" r="5"/>
<circle class="st3" cx="193.7" cy="29" r="5"/>
<path class="st4" d="M761.5,275v60.2l-495.2,0.3l-0.5-120.3c5.2,15.4,18.1,18.2,40.9-9c55.5-66.3,131.1-83.8,189.5-85.6
	c40-1.3,79.9,7,118,23.4c15.8,6.8,78.3,14.2,119.6,17.5c15.5,1.2,27.5,14.2,27.5,29.7L761.5,275z"/>
<path class="st4" d="M761.5,216.1v119.6H265.8v-26c14.2-3.6,67.2-17.3,92.6-55.2c30.4-45.4,71.7-57.3,103.7-58.6
	c21.9-0.9,43.7,4.8,64.5,16c23.4,12.6,68.6,27.9,102.9-16.4c37.9-49,96.2-8.6,111,6.2C745.8,207,761.5,216.1,761.5,216.1z"/>
<polyline class="st5" points="265.8,89.3 265.8,333.8 761.5,333.8 "/>
<line class="st6" x1="328.3" y1="333.8" x2="328.3" y2="184.8"/>
<line class="st6" x1="388.4" y1="333.8" x2="388.4" y2="144.9"/>
<line class="st6" x1="448.6" y1="333.8" x2="448.6" y2="125.9"/>
<line class="st6" x1="508.8" y1="333.8" x2="508.8" y2="120"/>
<line class="st6" x1="568.9" y1="333.8" x2="568.9" y2="126.6"/>
<line class="st6" x1="629.1" y1="333.8" x2="629.1" y2="150.8"/>
<line class="st6" x1="689.2" y1="333.8" x2="689.2" y2="163.2"/>
<circle class="st3" cx="328" cy="182.8" r="11.1"/>
<circle class="st3" cx="388.1" cy="144.9" r="11.1"/>
<circle class="st3" cx="448.3" cy="126.6" r="11.1"/>
<ellipse transform="matrix(0.1602 -0.9871 0.9871 0.1602 308.51 602.65)" class="st3" cx="508.4" cy="120" rx="11.1" ry="11.1"/>
<circle class="st3" cx="568.6" cy="126.6" r="11.1"/>
<circle class="st3" cx="628.7" cy="151.4" r="11.1"/>
<circle class="st3" cx="688.9" cy="164.5" r="11.1"/>
<ellipse class="st1" cx="514" cy="556" rx="514" ry="21"/>
<linearGradient id="SVGID_1_" gradientUnits="userSpaceOnUse" x1="-679.9789" y1="-233.7828" x2="-679.9789" y2="236.3215" gradientTransform="matrix(-1 0 0 -1 -555 335.5)">
	<stop  offset="0" style="stop-color:#808080;stop-opacity:0.25"/>
	<stop  offset="0.54" style="stop-color:#808080;stop-opacity:0.12"/>
	<stop  offset="1" style="stop-color:#808080;stop-opacity:0.1"/>
</linearGradient>
<path class="st7" d="M57.5,190.7c0,0.9-0.3,1.7-0.8,2.4c4-0.1,7.6-2.8,11.2-4c-0.7,3.9,0,8.5,0.5,11.8c0.5,3.2,1.3,6.3,2.4,9.4
	c2.5,10.9,7.1,21.6,11.3,32c1.8,4.1,3.1,8.5,4,12.9c2.8,16.9-6.9,33.1-8.8,50.1c-0.1,0.9-0.1,1.9,0,2.8c-0.2,0.2-0.3,0.4-0.4,0.6
	c-6.8,10.4-5.9,27.9-4.7,40.2s5.1,24.2,8.8,36.1c1.1,3.3,2,6.6,2.6,10c0.6,4.6,0.7,9.3,0.3,14c-1.2,21.7-4.3,43.6-0.7,65
	c2.6,15.6,8.4,29.8,9,45.6c0.5-1.2,1.2-2.2,2.2-3l1.1,41.5c-0.1,0.8,0.2,1.6,0.8,2.1c0.8,0.5,1.8,0,2.7-0.1c2.6-0.3,4.3,2.5,6.1,4.5
	c2.6,3,6.7,4.4,10.6,4.7c4,0.1,8-0.2,11.9-1.1c1.8-0.3,3.8-0.7,5.1-2c1.4-1.4,2.1-3.5,1.7-5.5c-0.8-6.1-7.4-9.6-10.7-14.8
	c-3.9-6.2-3-14.4-6.8-20.6c-1.3-2.1-3.1-3.9-4.3-6.1c-0.6-1.4-1.1-2.8-1.4-4.2c1.2,0.4,2.3,0.9,3.3,1.6c-0.4-3.2-0.7-6.5-1.1-9.7
	l-0.2-1.4c-0.5-4.4-1-8.8-1.4-13.2c-1.2-14.5,2.9-28.7,0-42.9c-0.6-3,0.4-6.1,1.2-9.1c5.1-16.8,8.1-34.1,9.2-51.7
	c0.4-6.2,0.4-12.1,2.3-18c2.3,9.5,9.5,16.9,14,25.6c2.8,5.4,4.5,11.3,7.5,16.6c1.5,2.6,3.2,5,4.2,7.8c1.4,4.3,0.7,9.1,0,13.6
	c-3.2,23.5-2.9,47.4-1.8,71.1c-1,9.1-3.1,18-6.2,26.5c-1.2,3.4-2.6,7.3-0.7,10.4c0.8,1.1,1.8,2.1,3,2.8c2.8,2,5.8,3.8,8.9,5.4
	c0.9,0.6,2,0.9,3.1,0.7c0.7-0.2,1.3-0.6,1.9-1c2.4-1.5,5.6-1.2,8.2-0.3s5.1,2.5,7.7,3.6c5.5,2.3,11.5,2.8,17.3,1.2
	c2.4-0.7,5-2,5.8-4.3s-0.6-4.9-2.5-6.4s-4.3-2.4-6.5-3.5c-4.8-2.5-8.7-6.4-11.2-11.2c-1.5-3.2-2.7-6.5-3.5-9.9
	c-1.2-4.1-2.3-8.2-3.5-12.2c0.7,0.4,1.3,0.9,1.9,1.4c1.6-20.2,3.3-40.5,7.6-60.3c2.1-9.5,4.8-19.1,3.7-28.7
	c-0.5-5.1-2.1-10-3.6-14.8c-4.7-15.2-8.8-30.5-12.3-46.1c1.3-1.5,2.3-3.2,3-5c1.1-3.4,1.7-7,1.8-10.6c1.7-24.3,1.6-48.7-0.2-73
	c-0.5-6.2-1.2-12.6-3.6-18.2h1.4c-1.7,0-4.4-16.8-4.8-18.6c-1.1-6.5-1.9-13-3.1-19.5c-0.6-3.1-1.2-6.3-2-9.4
	c-0.5-2.1-2.7-14.9-4.4-16.3c-0.2-0.2-0.4-0.3-0.6-0.4c-0.9-2.9-2.8-5.3-5.3-6.9c-2.8-1.6-6.1-1.6-9.3-1.4c-0.9-1.3-1.8-2.6-2.7-4
	c-1.7-2.2-3-4.6-3.8-7.2c-0.3-1.1-0.4-2.2-0.5-3.3c0-0.8-0.1-1.5-0.1-2.2c0-0.4,0-0.8,0-1.1c0-0.7-0.1-1.5-0.2-2.2l0,0
	c-0.1-0.6-0.2-1.2-0.4-1.8c-0.1-0.2-0.2-0.5-0.2-0.8c-0.5-1.5-1-3-1.4-4.5c-1.2-4.9-0.6-10.1-0.4-15.1s-0.1-10.4-3-14.6
	c-2.1-3.1-5.4-5.5-6.6-9c-0.5-1.7-0.5-3.5-1.3-5.1c-1-1.8-2.6-3.1-4.6-3.8c-2.3-1-6.8-2.3-9.2-1.1c-0.5,0.2-0.9,0.5-1.2,0.9
	c-2.6,0.1-5.2,0.5-7.4-0.6c-1.7-0.9-3-2.5-4.7-3.5c-4-2.2-9.1,0-12.7,2.9c-5.7,4.6-9.8,10.9-11.9,17.9c-1.6,5.4-2.2,11.7-6.8,15.1
	c-1.9,1.4-4.3,2.2-5.7,4.1c-0.9,1.5-1.4,3.3-1.5,5.1c-0.5,4.1-0.9,8.3,0.2,12.3c0.8,3,2.4,5.7,3.4,8.6c2.7,8.4,0.3,17.7-6.3,23.7
	C53.7,190.8,55.6,191.1,57.5,190.7z M153.7,312c2.8-1.5,4.7-4.1,5.4-7.2c0.1,0.4,0.2,0.8,0.3,1.2c1.3,5.2,1,10.7-0.8,15.8
	C157.3,318.4,155.7,315.1,153.7,312z M155.7,289.9c-1.7-2.4-3.1-4.9-4.2-7.6c-1.5-4.3-1.2-9-0.8-13.6c0.2-3.5,0.7-7,1.4-10.4
	C152.6,268.9,153.8,279.5,155.7,289.9L155.7,289.9z"/>
<path class="st1" d="M117,107.1c1.9,0.7,3.5,2,4.5,3.8c0.8,1.6,0.7,3.4,1.3,5.1c1.1,3.5,4.4,5.9,6.4,9c2.8,4.2,3.1,9.5,2.9,14.5
	s-0.8,10.1,0.4,15c0.6,2.4,1.6,4.6,2,7c0.5,2.9,0.1,6,0.8,8.9c0.8,2.6,2.1,5,3.7,7.1l6.5,9.5c-2.9-0.7-5.8-1.6-8.6-2.6
	c0.9,2.7,2.5,5.1,4.6,7l-4.7-5.7c-1-1.3-2.1-2.4-3.5-3.3c-1.7-1-3.8-1.1-5.7-1.5c-3.7-0.8-7.5-2.7-9.3-6c-2.4-4.5-0.9-10.1-2.2-15
	c-1-3.6-3.5-6.5-5.2-9.8c-3.8-7.5-3.6-16.3-4.8-24.6c-0.5-3.5-1.3-7-1.3-10.6c0-2.6,0.3-7.6,3-9C110.3,104.8,114.8,106.1,117,107.1z
	"/>
<path class="st8" d="M169.4,501.7l5,17.8c0.8,3.4,2,6.7,3.5,9.8c2.4,4.8,6.3,8.6,11,11.2c2.1,1.1,4.5,2,6.4,3.5s3.2,4.1,2.5,6.4
	s-3.3,3.6-5.6,4.3c-5.6,1.5-11.6,1.1-17-1.2c-2.5-1.1-4.9-2.7-7.6-3.6s-5.7-1.2-8.1,0.3c-0.6,0.4-1.2,0.8-1.9,1
	c-1.1,0.1-2.2-0.1-3.1-0.7c-3.1-1.6-6-3.4-8.8-5.4c-1.1-0.7-2.1-1.7-2.9-2.8c-1.9-3-0.6-7,0.6-10.3c3.2-8.9,5.3-18.1,6.2-27.5
	c0-0.8,0.3-1.7,0.9-2.2c0.4-0.2,0.9-0.3,1.4-0.3l21.4-1"/>
<path class="st8" d="M114.1,519.5c1.1,2.2,2.9,4,4.2,6.1c3.8,6.2,2.9,14.4,6.7,20.5c3.2,5.2,9.7,8.7,10.5,14.7c0.3,2-0.3,4-1.7,5.5
	c-1.4,1.2-3.3,1.6-5.1,1.9c-3.8,0.9-7.8,1.2-11.7,1.1c-3.9-0.3-7.9-1.8-10.5-4.7c-1.7-2-3.4-4.8-6-4.5c-0.9,0.1-1.9,0.6-2.6,0.1
	c-0.6-0.5-0.9-1.3-0.8-2.1L96,512.7c3.8-0.4,10.3-1.9,14-0.6C113.2,513.2,112.7,516.7,114.1,519.5z"/>
<path class="st9" d="M151.4,309.3c9.2,11.5,11.9,26.7,14.9,41.1c3.8,18.6,8.5,37,14.1,55.2c1.5,4.8,3,9.7,3.6,14.7
	c1,9.6-1.6,19.1-3.7,28.5c-4.2,19.7-5.9,39.8-7.5,59.9c-6.6-5.6-16.1-6.1-23.2-1.2c-1.1-24.2-1.6-48.7,1.7-72.7
	c0.6-4.5,1.4-9.2,0-13.5c-0.9-2.8-2.7-5.2-4.1-7.7c-3-5.2-4.7-11.1-7.4-16.5c-4.4-8.6-11.4-16-13.7-25.4c-1.9,5.8-1.9,11.8-2.3,17.9
	c-1,17.4-4,34.7-9,51.4c-0.9,2.9-1.8,6-1.2,9c2.8,14.2-1.2,28.3,0,42.7c0.4,4.4,0.9,8.7,1.3,13.1l0.2,1.4l1.1,9.7
	c-4-2.7-8.2-2.3-13.1-2.1c-1.6,0-3.2,0.3-4.8,0.8c-2,0.8-3.5,2.3-4.3,4.3c-0.6-15.7-6.2-29.8-8.8-45.3c-3.6-21.3-0.6-43.1,0.7-64.7
	c0.4-4.6,0.3-9.3-0.3-14c-0.6-3.4-1.4-6.7-2.5-10c-3.6-11.8-7.5-23.6-8.7-35.9s-2.1-29.6,4.6-40c2.1-3.2,7.1-1.8,10.3-3.8
	c2.5-1.6,5.3-2.7,8.2-3.4C115,298.8,133.6,307.8,151.4,309.3z"/>
<path class="st10" d="M119.9,167c0.4,4.4,1.3,9.5,5.3,11.4c2.3,1,4.9,0.6,7.3,1c4.6,0.8,8.4,4.3,10.6,8.5s2.9,8.9,3.4,13.5
	c0.6,5.8,0.8,12.1-2.4,17.1c-2.6,4-7,6.4-11.6,7.6c-9.3,2.4-19.3,0.6-27.1-5c-3.7-2.9-7.1-6.2-10-9.9c-6.6-7.7-13.3-16.2-14.7-26.3
	c-0.2-1.1-0.1-2.5,0.8-3.2c0.6-0.4,1.4-0.5,2.1-0.4l6.4,0.1c1.6,0,3.4,0,4.5-1.2s1-2.8,1-4.2L95,157.4c-0.1-0.7,0.1-1.3,0.4-1.9
	c0.4-0.4,0.9-0.6,1.5-0.6c3.5-0.6,7.2,0,10.6-1c3.3-0.9,8.4-4.6,10.8-0.8C120.3,156.5,119.5,163.2,119.9,167z"/>
<path class="st11" d="M119.9,167c0.4,4.4,1.3,9.5,5.3,11.4c2.3,1,4.9,0.6,7.3,1c4.6,0.8,8.4,4.3,10.6,8.5s2.9,8.9,3.4,13.5
	c0.6,5.8,0.8,12.1-2.4,17.1c-2.6,4-7,6.4-11.6,7.6c-9.3,2.4-19.3,0.6-27.1-5c-3.7-2.9-7.1-6.2-10-9.9c-6.6-7.7-13.3-16.2-14.7-26.3
	c-0.2-1.1-0.1-2.5,0.8-3.2c0.6-0.4,1.4-0.5,2.1-0.4l6.4,0.1c1.6,0,3.4,0,4.5-1.2s1-2.8,1-4.2L95,157.4c-0.1-0.7,0.1-1.3,0.4-1.9
	c0.4-0.4,0.9-0.6,1.5-0.6c3.5-0.6,7.2,0,10.6-1c3.3-0.9,8.4-4.6,10.8-0.8C120.3,156.5,119.5,163.2,119.9,167z"/>
<circle class="st10" cx="103.8" cy="141.4" r="24.3"/>
<path class="st12" d="M130,209.1c3.9,0.1,8.4-1,10.3-4.5c1.3-2.4,1.1-5.2,0.8-7.9l-1.4-15c3.8-0.4,7.9-0.7,11.3,1.1
	c4.4,2.5,6,8.1,6.5,13.1c0.9,9.5-0.6,19.1-0.1,28.6c0.4,8,2.3,16.3-0.1,23.9c-1,3.2-2.7,6.1-3.7,9.3c-1.4,4-1.7,8.3-2,12.5
	c-0.4,4.5-0.7,9.2,0.8,13.5c1.3,3.6,3.8,6.6,5.5,10c2.9,5.6,3.5,13.1-0.8,17.6c-4,4.1-10.6,4.3-16.2,3s-11-3.8-16.7-4
	c-10.1-0.4-19.1,6.1-29,8.3c-1.3,0.4-2.7,0.4-4.1,0.1c-1.2-0.4-2.3-1-3.3-1.8l-5.4-3.9c-1.1-0.6-2-1.6-2.6-2.7
	c-0.5-1.2-0.6-2.5-0.3-3.8c1.8-16.9,11.4-33.1,8.6-49.8c-0.9-4.4-2.2-8.7-3.9-12.8c-6.9-17.6-15.1-35.8-12.4-54.5
	c0.6-4.1,1.8-8.4,4.6-11.4s7.7-4.6,11.4-2.6s5,6.3,6.6,10.1c3.1,7.4,8.1,13.8,14.5,18.7c2.7,2.1,5.9,4.7,9.4,4.8
	C122,209.3,126,209,130,209.1z"/>
<path class="st10" d="M165.2,246.9c5.9,6.5,7.1,16,7.7,24.8c1.8,24.2,1.9,48.4,0.2,72.6c-0.1,3.6-0.7,7.1-1.8,10.5
	c-1.3,3.3-3.6,6.5-6.9,7.8c-2.1,0.9-5.1,0.6-6.1-1.5c-0.9-1.9,0.4-4,1.4-5.9c2.3-4.3,3-9.2,2.2-13.9c-1.2,0.9-1.6,2.5-2,3.9
	l-1.9,8.1c-2.6-0.4-3.6-3.6-4-6.2c-0.8-4.7-1.5-9.8,0.4-14.1c1-2.3,2.7-4.3,3.7-6.7c2.6-5.9,3.6-12.6,1.9-18.8
	c-5.5-20.9-7.9-42.6-7.2-64.2C156.6,245.5,160.9,246.7,165.2,246.9z"/>
<path class="st12" d="M170.8,253.5c-7.3,0.1-14.5,1-21.5,2.8c-0.9-4.6-0.5-9.3,0-14l3.1-32c0.2-2.4-0.2-24.1,4.4-20.3
	c1.7,1.4,3.8,14.1,4.4,16.2c0.8,3.1,1.4,6.2,2,9.3c1.1,6.4,1.9,12.9,3,19.4C166.4,236.9,169.1,253.5,170.8,253.5z"/>
<path class="st1" d="M113.1,110.5c0-0.8-0.1-1.5-0.5-2.2c-0.6-0.8-1.6-1.3-2.6-1.4c-3.5-0.5-7.4,0.9-10.5-0.7
	c-1.7-0.9-2.9-2.5-4.6-3.5c-4-2.2-9,0-12.4,2.9c-5.6,4.6-9.6,10.8-11.7,17.8c-1.6,5.4-2.2,11.7-6.6,15.1c-1.9,1.4-4.2,2.2-5.6,4.1
	c-0.9,1.5-1.4,3.2-1.5,5c-0.5,4.1-0.9,8.3,0.2,12.2c0.8,3,2.4,5.6,3.4,8.5c2.7,8.4,0.3,17.6-6.2,23.6c1.6,1,3.6,1.4,5.4,0.9
	c0,0.9-0.3,1.7-0.8,2.4c5.7-0.2,10.6-5.7,16.2-4.5c4.3,0.9,6.6,5.3,9.8,8.3c4.1,3.8,10.4,5.5,15.6,3.2s8.2-8.8,6.1-13.9
	c-2.5-5.9-10.1-8.2-12.8-14c-2.1-4.5-0.5-9.8-1-14.7c-0.4-4.2-2.2-8.2-3.3-12.3s-1.5-8.8,0.8-12.3c2.5-3.8,7.2-5.3,11.5-6.7
	C111.6,125.2,113.5,120.3,113.1,110.5z"/>
<path class="st10" d="M107.1,198c0.7-3.4,1.4-7,0.1-10.3c-2.3-6-9.7-7.9-14.9-11.8c-3-2.3-5.3-5.3-6.6-8.8c-0.9-2.5-1.1-5.8,1.2-7.1
	c0.9-0.4,1.9-0.6,2.9-0.5c8,0.2,15.4,4.5,21.5,9.7c3.6,3,7,6.4,8.8,10.8c1.1,3.1,1.8,6.4,2,9.7l1.3,10.9c0.8,6.3,1.3,12.5,1.5,18.9
	c0,3.6-0.2,7.2-0.7,10.8c-0.3,2.5-0.8,5.2-2.3,7.2c-2.8,3.9-8.1,4.8-12.9,4.9c-1.8,0.1-3.6,0-5.4-0.3c-7.9-1.7-13.9-12.8-7.9-19.7
	c2.6-2.9,6.4-3,7.8-7C105.5,209.9,106,203.5,107.1,198z"/>
<path class="st12" d="M100.7,199.9l6.3,10.2c0.4,0.5,0.6,1.1,0.8,1.8c0.2,1.3-0.8,2.5-1.6,3.6c-5.4,7.4-4,17.5-2.4,26.5
	c-17.6-5.6-30.4-20.7-33.1-38.9c-0.8-5.4-2.1-14.2,2.7-17.6C84.8,177,95.3,191.1,100.7,199.9z"/>
<path class="st1" d="M132.5,179.4c-2.4-0.4-5.1,0-7.3-1c-4-1.8-4.9-7-5.3-11.4c0-0.4-0.1-0.9-0.1-1.3c1.4-1.5,3-2.8,4.6-4
	c1.5-0.9,3.1-1.6,4.7-2.1l4.4-1.5c0.4,1.2,0.8,2.4,1,3.6c0.5,2.9,0.1,6,0.8,8.9c0.8,2.6,2.1,5,3.7,7.1l6.5,9.5
	c-1.2-0.3-2.4-0.6-3.5-0.9C139.9,182.8,136.5,180,132.5,179.4z"/>
<linearGradient id="SVGID_2_" gradientUnits="userSpaceOnUse" x1="978.4559" y1="-228.548" x2="978.4559" y2="262.4556" gradientTransform="matrix(1 0 0 -1 -86 335.5)">
	<stop  offset="0" style="stop-color:#808080;stop-opacity:0.25"/>
	<stop  offset="0.54" style="stop-color:#808080;stop-opacity:0.12"/>
	<stop  offset="1" style="stop-color:#808080;stop-opacity:0.1"/>
</linearGradient>
<path class="st13" d="M1015,221.5c-1.2-5.6-3.3-11-4.6-16.6c-0.5-2.9-1.3-5.8-2.2-8.6c-0.5-1.2-1-2.4-1.7-3.5l0.6-0.6
	c-2.1-3.5-2.1-7.8-3.1-11.8c-0.8-3.4-2.5-6.5-3.5-9.9c-1.4-4.7-1.6-9.9-4.5-13.8c-1.1-1.5-2.6-2.7-3.9-4.1c-1.5-1.6-2.6-3.5-4.1-5.1
	c-4.3-4.6-10.8-6-16.9-6.7s-12.5-0.6-18.1-3.2c-2.4-1.1-4.9-2.6-7.3-2.4c-1.4-1.3-2.7-2.8-3.8-4.4c-1.9-2.3-3.6-4.7-5.1-7.2
	c1.2-2,2.1-4.2,2.7-6.4l0.4-0.3c1.6-1.2,3-2.8,4.6-4c1.4-1,3.2-2,3.3-3.8s-1.5-3.1-2.5-4.6c-3.6-5.3,0.4-13.5-3.3-18.7
	c-1.8-2.6-5.1-3.6-8-4.9c-4-1.8-7.6-4.3-11.5-6s-8.6-2.6-12.6-1c-7.5,3.1-10.2,13.8-17.8,16.5c-0.8,0.2-1.6,0.6-2.1,1.2
	c-0.9,1.5-2.2,10.5-1.9,12.3c0.3,2.5,0.9,3.7,2.6,4.5c0,0.5,0,1,0,1.6c0,12.7,8.8,23.3,20.5,25.5c1.1,1.2,2.1,2.5,2.8,3.9
	c0.6,1.5,0.9,3.1,1,4.8c-0.4-0.2-0.9-0.3-1.3-0.3c-1.5,0.2-2.8,1.3-3.2,2.8c-0.4,1.5-0.6,3-0.5,4.5c0.1,1-0.2,1.9-0.9,2.6
	c-0.4,0.2-0.8,0.4-1.2,0.4c-1.5,0.3-3.1,0.4-4.7,0.5c-2.6,0-5.4-0.6-7.7,0.6s-3.3,4-4.4,6.5c-1.6,3.5-3.7,6.8-6.2,9.8
	c-2.8,3.2-6.3,6.3-7.1,10.6c0,0.1,0,0.2,0,0.3c-2.2,1-4.4,3.4-6,4.6c-3,2.3-5.9,4.8-8.7,7.4c-2.8,2.7-6.6,6.1-8.3,9.7
	c-0.9,1.5-2.1,2.9-3.5,4c-2.8,1.9-6.5,0.9-9.7-0.2c-8.9-2.9-17.8-5.8-26.2-10.2c-0.4-0.3-0.9-0.4-1.4-0.4c-0.3,0.1-0.5,0.2-0.7,0.5
	c-0.1-0.1-0.1-0.2-0.2-0.3c-2.2-2.4-5.8-2.6-7-6.3c-0.3-1.2-0.6-2.4-0.7-3.6c-0.8-3.5-2.1-6.9-3.8-10.1c-0.3-0.7-0.7-1.2-1.2-1.7
	c-1.1-0.5-2.4-0.1-3,1c-0.6,1-0.8,2.2-0.6,3.4c0.1,1.3,0.3,2.8-0.6,3.7c-0.4,0.3-0.8,0.6-1.3,0.7c-2.9,0.9-6.1,0.1-8.8-1.3
	s-5.1-3.4-7.8-4.9c-1.4-0.8-2.9-1.5-4.4-2.1c-1.5-0.6-3.7-1.1-4.5,0.4c-0.7,1.2,0,2.7,0.8,3.8c1.3,1.9,2.9,3.7,4.7,5.3
	c5.2,4.6,11.8,7.2,17.8,10.5c5.3,2.8,10.3,6.2,15,10c-0.2,0.6-0.3,1.2-0.3,1.8c0,2.4,1,4.7,2.8,6.3c1.7,1.5,3.7,2.8,5.8,3.8
	c10.6,5.5,21.3,10.9,32,16.1c0.7,0.4,1.4,0.6,2.2,0.7c2.2,0,3.6-2.3,5.3-3.7s4-1.7,6.1-2.5c3.8-1.3,7-3.7,10.2-6.2l10.2-7.7
	c5.2-3.9,10.4-8,14.8-12.8c0.5,1.1,1.3,2.2,2.3,3c-0.8,1.9,0.9,3.8,1.3,5.8c0.1,1.3,0.2,2.7,0.1,4c0.2,1.9,0.5,3.9,1,5.8
	c0.5,3.1,0.7,6.2,0.7,9.4c0,3.5,0.1,7,0.2,10.5c0.1,4.5,0.1,9.1-0.8,13.5c-1.3,6-4.5,11.7-4.2,17.9c0.2,1.1,0.1,2.3-0.3,3.4
	c-2.6,5-4.7,10.5-7.5,15.4c-0.8,1.2-1.5,2.5-2,3.9c-0.3,1.4-0.2,2.9,0.4,4.3c-1.1,2-1.7,4.2-1.8,6.5c-0.2,5.7,2.1,11,3.2,16.6
	c1,5.1,1,10.3,1.2,15.6c0.8,24.4,5.5,48.5,6.5,72.8c0.5,11.2,0.1,22.5-1,33.7c-0.7,7.2-1.8,14.4-2.2,21.7c-1.2,20.6,3.2,41,7.4,61.2
	c1.3-1.5,3.1-2.5,5.1-2.8c-0.5,2-1.2,4.6-1.9,6.5c-1,0.1-2,0.5-2.9,1.1c-2.5,1.6-3.3,4.8-4.8,7.5c-3.2,5.8-9.4,8.7-14.5,12.7
	c-2.5,1.9-4.9,4.8-4.2,7.8c8.8,2.6,18.5,4.8,27,1.3c3.5-1.4,6.7-3.8,10.4-3.9c2.8-0.1,5.7,1.1,8.4,0.3c0.7-0.2,1.3-0.6,1.7-1.2
	c0.3-0.6,0.5-1.3,0.4-2c0.2-4.7,0.2-9.4-0.1-14.1c-0.2-4,0.2-7-3.1-7.6c-0.8-2-1.4-4.1-1.8-6.2c0-0.4-0.1-0.8-0.1-1.2
	c0.9,0,1.8-0.1,2.7-0.2c0.5-0.1,1.1-0.2,1.6-0.4c-0.2-0.7-0.3-1.4-0.5-2.1c-0.3-1.4-0.5-2.8-0.7-4.2s-0.3-2.8-0.4-4.2
	c0-0.7-0.1-1.4-0.1-2.1c-0.1-1.4-0.1-2.8-0.1-4.2s0-2.8,0.1-4.2s0.1-2.8,0.2-4.3c0.2-3.5,0.6-7.1,0.9-10.6c1-10.3,2-20.7,3.1-31
	c0.3-3.1,0.6-6.2,0.7-9.3c0-1.9,0-3.7-0.3-5.6c-0.5-4.5-1.9-9-2-13.4c0-0.7,0-1.5,0.1-2.2c0.1-0.7,0.2-1.5,0.4-2.2
	c0.1-0.4,0.2-0.8,0.3-1.2c0.2-0.8,0.5-1.6,0.8-2.3c0.1-0.4,0.2-0.8,0.4-1.2c0.4-1.7,0.7-3.4,0.7-5.2c0-0.6,0.1-1.2,0.1-1.7l1.2-24.4
	c0.2-3.9,0.5-8.1,2.1-11.6c0.7-1.5,1.6-2.9,2.8-4.1c-0.3-0.8,0-2.2,0.9-2.5c1,12.4,0.9,25-0.4,37.4c-0.4,3.9-1.1,7.8-1.3,11.7
	c-0.4,8.6,1.5,17.2,2.2,25.8s0,17.5,0,26.2c-0.1,15,1.6,30,3.2,45l1,0.7c0,1.3,0.2,2.8,0.1,4c0,0.4,0,0.9,0.1,1.3h-0.4
	c-2,0.2-3.7,1.3-4.7,3c-1,1.7-1.7,3.6-2.1,5.5c-0.5,1.4-0.7,2.9-0.6,4.4c0.4,2.8,2.8,5,3.4,7.8c1.2,5.1-3.8,10.5-1.5,15.2
	c1.4,3,5.1,3.8,8.2,4.3c4.8,0.8,10.3,1.4,14.2-1.8c2.1-1.8,3.3-4.5,3.2-7.2c0-3.7-2.2-6.9-3.1-10.4c-1.3-4.9,0.7-11.6-1.4-16.1
	c-0.2-0.5-0.4-0.9-0.8-1.3h0.7c-0.2-1.7-0.3-3.3-0.5-5l1.7-0.9c1.7-0.9,3.7-1.5,5.5-0.8c-0.7-8.6-0.9-18.1,1.1-26.4
	c1.5-6.6,4.3-12.9,5.6-19.5c1-5.5,1.1-11.1,1.1-16.7c0-10.4,0-20.8-1.7-31c-0.7-4.1-1.7-8.3-0.9-12.3c0.5-2.7,1.7-5.2,2.4-7.8
	c1.7-6.2,0.4-12.8,1.4-19.1c2.4-15.1,3.6-30.9,5.4-46.1c0.9-8.6,1.2-17.3,0.9-25.9v-0.1l3.6-7c2.6-5,5.2-10.1,6.7-15.5
	c0.5,0.8,1,1.6,1.3,2.5l15.8-26.2c1-1.6,1.8-3.2,2.4-5c0.4-1.3,0.5-2.6,0.8-3.9c0.7-3.4,2.4-6.4,3.8-9.5
	C1016,241.1,1017,231.1,1015,221.5z M991.4,234.7c-0.7,4.3-1.7,8.6-3,12.8c-2.1,7.2-4.5,14.2-6.9,21.3l-2.1,6
	c-0.7,2.4-1.8,4.7-3.2,6.8c-0.3,0.5-0.6,1.1-0.8,1.6c-2.1-8,0.2-17-0.3-25.5c-0.4-6.5-2.4-13-0.9-19.2c1-4.2,3.5-7.8,5.3-11.8
	c1.7-3.7,2.7-7.6,4.5-11.2c0,0.1,0,0.1,0.1,0.2c1.7,4.3,3.6,8.6,5.9,12.6c0.6,0.9,1.1,1.9,1.4,3
	C991.7,232.4,991.7,233.5,991.4,234.7L991.4,234.7z"/>
<path class="st14" d="M805.7,191.4c-0.4-1.2-0.6-2.4-0.8-3.6c-0.7-3.6-2.3-6.9-3.9-10.2c-0.3-0.7-0.7-1.2-1.3-1.7
	c-1.1-0.5-2.4-0.1-3.1,1c-0.6,1-0.8,2.3-0.7,3.4c0.1,1.3,0.3,2.8-0.6,3.8c-0.4,0.3-0.8,0.6-1.3,0.7c-3,1-6.3,0.1-9.2-1.3
	s-5.3-3.4-8.1-4.9c-1.5-0.8-3-1.5-4.5-2.1c-1.6-0.6-3.8-1.1-4.7,0.4c-0.7,1.2,0,2.7,0.8,3.8c1.4,2,3,3.7,4.9,5.3
	c5.4,4.7,12.3,7.3,18.6,10.5c7.1,3.6,13.8,8.2,19.8,13.5c0.6-0.7,0.9-1.5,1-2.5c0.5-2.5,2.6-7.7,0.5-9.9
	C810.6,195.2,807,195.1,805.7,191.4z"/>
<path class="st9" d="M906,534.8c5.3,4.2,12.1,6.1,18.8,5.3c1.4-0.2,3-0.7,3.5-2c0.2-0.8,0.1-1.6-0.3-2.4c-1.1-2.5-1.9-5.1-2.4-7.8
	c-0.3-2.4-0.3-5.3-2.2-6.8c-2.9-2.1-10.3-2-12.2,1.3C910.7,523,907.9,536.4,906,534.8z"/>
<path class="st9" d="M946.3,523c-0.3,1,0.3,2.1,1.4,2.3c0.1,0,0.2,0,0.3,0c4.6,1.4,9.4,2.2,14.2,2.4l-1-9.6c0.1-0.8-0.5-1.5-1.4-1.6
	c-0.1,0-0.2,0-0.2,0c-2.8-0.5-8.6-2.3-11.2-1.4C945.3,516.2,946.3,520.1,946.3,523z"/>
<path class="st14" d="M918.4,139.2c0.8,2,1.2,4.2,1.1,6.3c0.2,7.8-1.1,16.1-6.5,21.7c6.1-1.8,12.9-0.7,18.6-3.4
	c2.7-1.2,4.9-3.2,7.4-4.8c4.4-2.8,9.6-4.1,14.2-6.6s8.9-6.6,9.1-11.8c-2-2.1-5.2-2.4-7.8-3.7c-2.8-1.4-4.9-3.9-6.9-6.3
	c-2.3-2.7-4.4-5.6-6.1-8.7c-1.7-3.1-2.4-6.7-2-10.3c-5.1,0.9-8.8,5.4-13.7,7.3c-1.9,0.7-3.9,1.1-5.7,1.9c-2.6,1.2-7.9,5.3-8,8.5
	C912,132.9,917,136.2,918.4,139.2z"/>
<path class="st11" d="M918.4,139.2c0.8,2,1.2,4.2,1.1,6.3c0.2,7.8-1.1,16.1-6.5,21.7c6.1-1.8,12.9-0.7,18.6-3.4
	c2.7-1.2,4.9-3.2,7.4-4.8c4.4-2.8,9.6-4.1,14.2-6.6s8.9-6.6,9.1-11.8c-2-2.1-5.2-2.4-7.8-3.7c-2.8-1.4-4.9-3.9-6.9-6.3
	c-2.3-2.7-4.4-5.6-6.1-8.7c-1.7-3.1-2.4-6.7-2-10.3c-5.1,0.9-8.8,5.4-13.7,7.3c-1.9,0.7-3.9,1.1-5.7,1.9c-2.6,1.2-7.9,5.3-8,8.5
	C912,132.9,917,136.2,918.4,139.2z"/>
<path class="st8" d="M984.2,341.2c-1.9,15.2-3.2,31.1-5.7,46.2c-1,6.3,0.2,13-1.5,19.2c-0.8,2.7-2,5.1-2.6,7.8
	c-0.8,4.1,0.2,8.3,1,12.4c1.8,10.2,1.8,20.7,1.8,31.2c0,5.6,0,11.3-1.1,16.8c-1.3,6.7-4.2,13-5.8,19.6c-2.1,8.4-1.9,17.9-1.2,26.5
	c-1.9-0.7-4,0-5.8,0.8s-3.6,2-5.6,2.1c-2.7,0.2-5.2-1.2-7.5-2.5c-1.8-1-3.3-2-5.1-3.1c-1.7-15-3.5-30.1-3.4-45.2
	c0-8.8,0.7-17.6,0-26.3s-2.7-17.2-2.3-25.9c0.2-3.9,0.9-7.8,1.3-11.7c1.5-12.7,1.3-24.8,0.4-37.5c-0.9,0.2-1.2,1.6-0.9,2.5
	c-1.3,1.2-2.3,2.5-3,4.1c-1.6,3.5-1.9,7.7-2.2,11.7l-1.3,24.5c0,2.3-0.3,4.6-0.9,6.9c-0.5,1.6-1.1,3.1-1.5,4.8
	c-1.5,5.9,0.9,11.9,1.6,17.9c0.6,5,0.1,10-0.4,14.9l-3.2,31.1c-1.2,11.3-2.3,22.9,0,34c0.2,0.7,0.3,1.4,0.5,2.1
	c-0.6,0.2-1.1,0.3-1.7,0.4c-2,0.3-4,0.3-6,0c-1.9-0.2-3.7-0.5-5.6-0.7c-4.4-0.5-8.8-0.7-11.8,2.7c-4.5-20.2-8.9-40.8-7.8-61.4
	c0.4-7.3,1.5-14.5,2.3-21.8c1.2-11.2,1.6-22.5,1.1-33.8c-1-24.5-6-48.7-6.8-73.1c-0.2-5.2-0.2-10.5-1.2-15.6
	c-1.1-5.5-3.5-11-3.3-16.6s4.3-11.9,10-11.6c15.7,0.9,30.1-7.8,45.8-9.3c7.1-0.7,14.4-1.7,21.4-0.4s14.1,5.3,16.8,11.9
	c1.5,3.6,1.6,7.6,1.7,11.5C985.2,319.1,985.5,330.2,984.2,341.2z"/>
<path class="st2" d="M905.1,533.2c-2.6,1.6-3.5,4.9-5,7.5c-3.3,5.8-9.8,8.7-15.2,12.7c-2.6,1.9-5.1,4.8-4.3,7.9
	c9.2,2.6,19.3,4.9,28.2,1.3c3.6-1.4,7-3.8,10.9-3.9c3-0.1,6,1.2,8.8,0.3c0.7-0.2,1.3-0.6,1.7-1.2c0.3-0.6,0.5-1.3,0.5-2
	c0.2-4.7,0.2-9.5-0.1-14.2c-0.3-4.6,0.3-7.9-4.9-7.7C919.7,534.2,910.4,529.9,905.1,533.2z"/>
<path class="st2" d="M949.4,525c-1.1-0.4-2.2-0.7-3.4-0.8c-2,0.2-3.8,1.3-4.9,3c-1,1.7-1.8,3.6-2.2,5.5c-0.5,1.4-0.7,2.9-0.6,4.5
	c0.4,2.9,2.9,5,3.6,7.8c1.2,5.1-4,10.6-1.6,15.3c1.5,3,5.3,3.8,8.6,4.4c5.1,0.8,10.8,1.4,14.8-1.8c2.2-1.8,3.4-4.4,3.4-7.2
	c-0.1-3.7-2.3-7-3.3-10.5c-1.4-5,0.7-11.6-1.5-16.2C960.3,525,953.4,526.3,949.4,525z"/>
<circle class="st14" cx="920" cy="109.7" r="26"/>
<path class="st9" d="M933.8,152.3c-2.8-1.2-5.9-1.4-8.9-0.7l-2.4-4.1c-1-1.8-2.5-3.9-4.6-3.8c-1.6,0.2-2.8,1.3-3.3,2.8
	c-0.4,1.5-0.6,3-0.5,4.5c0.1,1-0.2,1.9-0.9,2.6c-0.4,0.2-0.8,0.3-1.3,0.4c-1.6,0.3-3.3,0.4-4.9,0.5c-2.7,0-5.6-0.7-8,0.6
	s-3.5,4-4.6,6.5c-1.7,3.6-3.9,6.9-6.5,9.8c-2.9,3.2-6.6,6.3-7.4,10.6c-0.3,1.8,1.3,3.2,2.6,4.5c5.2,5.2,12.6,8.4,16.5,14.7
	c0.9,1.5,1.7,3.1,3,4.1c-0.9,1.9,1,3.8,1.4,5.9c0.2,1.3,0.2,2.7,0.1,4c0.2,2,0.5,3.9,1,5.8c0.5,3.1,0.7,6.2,0.7,9.4l0.2,10.5
	c0.1,4.5,0.1,9.1-0.8,13.5c-1.3,6-4.7,11.8-4.4,17.9c0.2,1.2,0.1,2.3-0.3,3.4c-2.7,5-4.9,10.5-7.8,15.5c-0.8,1.2-1.5,2.5-2,3.9
	c-0.8,2.8,0.8,5.9,3.2,7.7s5.3,2.5,8.2,3.1c26.9,5.2,54.9-1,80.4-11.2c0.7-0.2,1.3-0.5,1.8-1c1.9-1.8,0.4-4.9-0.7-7.2
	c-4-8.8-0.8-19-1.4-28.6c-0.4-6.5-2.5-13-0.9-19.3c1-4.2,3.7-7.9,5.5-11.8c2-4.3,3.1-9,5.7-12.9c2-2.7,4.3-5.1,6.8-7.2l16.2-14.5
	c-2.2-3.5-2.2-7.9-3.2-11.8c-0.9-3.4-2.6-6.6-3.7-9.9c-1.5-4.7-1.7-10-4.7-13.8c-1.2-1.5-2.7-2.7-4.1-4.1c-1.5-1.6-2.7-3.5-4.3-5.1
	c-4.5-4.6-11.3-6.1-17.7-6.7s-13-0.6-18.9-3.2c-2.9-1.2-6-3.1-9-2.2c-2.4,0.7-3.9,3.1-4.9,5.4s-1.7,4.8-3.2,6.7
	C940.2,149.7,936.7,151.2,933.8,152.3z"/>
<path class="st9" d="M856.5,204.2c-0.9,1.6-2.2,2.9-3.6,4c-3,1.9-6.8,0.9-10.2-0.2c-9.3-2.9-18.6-5.8-27.3-10.2
	c-0.4-0.3-0.9-0.4-1.5-0.4c-0.4,0.1-0.8,0.4-1,0.7c-1.4,1.5-2.6,3.1-3.8,4.8c-1.2,1.6-1.9,3.4-2.2,5.4c0,2.4,1.1,4.7,2.9,6.3
	c1.8,1.5,3.8,2.8,6,3.8c11.1,5.5,22.2,10.9,33.4,16.1c0.7,0.4,1.5,0.6,2.3,0.7c2.3,0,3.7-2.3,5.5-3.7s4.2-1.7,6.4-2.5
	c3.9-1.3,7.3-3.8,10.7-6.2l10.7-7.8c9.4-6.8,19.2-14.2,23.3-25l-13-4.3c-3.9-1.3-8-3.2-12-4c-3-0.6-6.6,3.4-8.9,5.1
	c-3.2,2.3-6.2,4.9-9.1,7.5C862.3,197.2,858.3,200.6,856.5,204.2z"/>
<path class="st14" d="M979.6,289.6c-3.7,1.5-7.8-0.7-11.7-0.1c-1.8,0.4-3.6,1.1-5.1,2.1l-11.4,6.3c-0.7,0.4-1.5,1.3-0.8,1.8
	c0.2,0.1,0.4,0.2,0.6,0.2c3.8,0.5,7.3-1.8,11.1-2.5c1.7-0.2,3.3-0.3,5-0.2c0.3,0,0.6,0,0.8,0.1c0.6,0.3,0.9,0.9,0.8,1.6
	c0,0.6-0.2,1.3-0.2,1.9c0.1,1.5,0.7,2.9,1.7,4c3.6,5.2,7.6,10.1,12,14.7c1.1-1.4,2.1-2.9,2.9-4.5l3.7-7c3.9-7.2,7.8-14.7,8.5-22.9
	c-2.8-0.9-8-3.8-10.9-2.3S982.9,288.5,979.6,289.6z"/>
<path class="st1" d="M916.8,105.6c7.3,0.8,14,4.2,20.5,7.6c-1.1,1.8,0.3,4.3,2.3,4.9s4.2-0.2,5.9-1.5s3.1-2.8,4.8-4
	c1.5-1,3.3-2.1,3.5-3.8s-1.5-3.1-2.6-4.6c-3.8-5.3,0.4-13.6-3.5-18.8c-1.9-2.6-5.3-3.6-8.3-4.9c-4.1-1.8-7.9-4.3-12.1-6
	s-8.9-2.7-13.1-1c-7.8,3.1-10.6,13.8-18.6,16.6c-0.9,0.2-1.6,0.6-2.2,1.3c-1,1.5-2.2,10.5-2,12.4c0.4,3.1,1.2,4.2,4.3,5.1
	C902.2,110.7,909.8,104.8,916.8,105.6z"/>
<path class="st9" d="M1011.5,188.5c2.4,2.1,4.2,4.8,5.3,7.7c0.9,2.8,1.7,5.7,2.3,8.6c1.4,5.6,3.6,11,4.8,16.6c2.1,9.6,1,19.7-3,28.7
	c-1.4,3.1-3.2,6.2-3.9,9.5c-0.3,1.3-0.4,2.6-0.8,3.9c-0.6,1.8-1.5,3.5-2.5,5L997.3,295c-1.3-3.1-3.8-5.5-7-6.6
	c-3.2-1.1-6.5-1.3-9.8-0.6c1.2-1.9,1.8-4.1,3-6c0.7-1,1.3-2.1,1.9-3.2c0.6-1.2,1-2.4,1.5-3.7l2.2-6.1c2.5-7.1,5-14.2,7.2-21.4
	c1.3-4.2,2.4-8.5,3.2-12.8c0.2-1.1,0.3-2.2,0.1-3.4c-0.3-1.1-0.8-2.1-1.5-3.1c-2.4-4-4.5-8.3-6.2-12.6c-1.3-3-2.6-6.5-1.4-9.6
	c0.7-1.6,1.8-3.1,3.2-4.3C999,196.7,1005,192.2,1011.5,188.5z"/>
<path class="st11" d="M928.2,526.4l1.2-2.5c-2.3-11.1-1.2-22.7,0-34l3.2-31.1c0.5-5,1-10,0.4-14.9c-0.8-6-3.1-12-1.6-17.9
	c0.4-1.6,1.1-3.1,1.5-4.8c0.5-2.3,0.8-4.6,0.9-6.9l1.3-24.5c0.2-3.9,0.5-8.2,2.2-11.7v-0.7l-4.1-35.5l-10.9,184.3H928.2z"/>
<path class="st15" d="M834.6,541.7c3-5.5-0.4-12.3-4.3-17.2s-8.6-10-8.5-16.3c0.2-9,9.7-14.3,17.3-19.1c5.7-3.5,10.9-7.7,15.6-12.5
	c2-1.8,3.6-4,4.8-6.4c1.6-3.5,1.5-7.5,1.4-11.4c-0.3-12.8-1-25.7-1.9-38.5"/>
<path class="st16" d="M873.5,419.6c-0.2-4.8-2.9-9.1-7-11.5l-3.1,6.2l0.1-7.5c-1.5-0.4-3.1-0.6-4.6-0.6c-7.7,0.4-13.7,7-13.3,14.7
	c0.4,7.7,7,13.7,14.7,13.3C867.9,433.9,873.9,427.3,873.5,419.6L873.5,419.6z"/>
<path class="st16" d="M848.5,514.6c-3.5,6.9-12,9.6-18.9,6c-6.9-3.5-9.6-12-6-18.9c3.5-6.9,12-9.6,18.9-6c3.1,1.6,5.5,4.3,6.7,7.6
	l-8.8,7.2l9.7-2.2C850,510.5,849.5,512.7,848.5,514.6z"/>
<path class="st16" d="M841.5,487.4c-7.7,0.5-14.4-5.3-15-13c-0.5-6.8,3.9-12.9,10.5-14.6l-0.1,5.8l3.2-6.3l0,0
	c7.7-0.4,14.3,5.6,14.7,13.3c0,0,0,0,0,0.1c0.1,1.6-0.1,3.2-0.6,4.8C852.5,483.1,847.5,487.1,841.5,487.4z"/>
<path class="st16" d="M875.6,464.7c-7.7,0.3-14.2-5.7-14.5-13.5c-0.3-7.7,5.7-14.2,13.5-14.5c2.5-0.1,5,0.5,7.2,1.7l-2.5,6.8
	l5.1-4.9c2.7,2.5,4.4,6,4.5,9.7c0.1,1.3-0.1,2.6-0.3,3.9C887.2,460,881.9,464.4,875.6,464.7z"/>
<path class="st11" d="M871.6,423.4c-3.2,0.3-6.4,1.4-9.6,1.6s-6.8-0.6-8.9-3.1c-1.1-1.4-1.7-3.1-2.6-4.6c-0.9-1.4-2.1-2.5-3.5-3.3
	c-3.3,7-0.4,15.3,6.6,18.7c7,3.3,15.3,0.4,18.7-6.6c0.4-0.9,0.8-1.8,1-2.8C872.7,423.3,872.2,423.3,871.6,423.4z"/>
<path class="st11" d="M875.6,464.7c-7.7,0.4-14.3-5.6-14.7-13.3c-0.1-2.3,0.3-4.6,1.3-6.7c1.1,0.7,2.1,1.7,2.8,2.8
	c1,1.5,1.6,3.3,2.8,4.6c2.2,2.6,5.9,3.4,9.3,3.3s6.7-1.1,10-1.4c0.5,0,0.9-0.1,1.4-0.1C887.2,460,881.9,464.4,875.6,464.7z"/>
<path class="st11" d="M841.5,487.4c-7.7,0.4-14.3-5.6-14.7-13.3c-0.1-2.2,0.3-4.5,1.2-6.5c1.2,0.8,2.2,1.7,3,2.8
	c1.1,1.5,1.8,3.3,3,4.7c2.4,2.6,6.3,3.6,9.9,3.5s6.8-0.9,10.3-1.2C852.6,483.2,847.5,487.1,841.5,487.4z"/>
<path class="st11" d="M848.5,514.6c-3.2,7.1-11.5,10.2-18.5,7.1s-10.2-11.5-7.1-18.5l0,0c1.2,0.8,2.2,1.7,3.1,2.8
	c1.3,1.6,2.2,3.5,3.8,5c2.9,2.8,7.5,4,11.6,4.1C843.7,515,846.1,514.9,848.5,514.6z"/>
<path class="st17" d="M813.4,535.3c0,0,11.1-0.3,14.4-2.7s17-5.2,17.9-1.4s16.7,19,4.2,19.1s-29.1-1.9-32.4-4
	S813.4,535.3,813.4,535.3z"/>
<path class="st18" d="M850.1,548.9c-12.5,0.1-29.1-2-32.4-4c-2.5-1.5-3.5-7.1-3.9-9.7h-0.4c0,0,0.7,8.9,4,11s19.9,4.1,32.4,4
	c3.6,0,4.8-1.3,4.8-3.2C854.1,548.2,852.8,548.9,850.1,548.9z"/>
<path class="st15" d="M58.4,552.7c-3-5.5,0.4-12.3,4.3-17.2s8.6-10,8.5-16.3c-0.1-9-9.7-14.3-17.3-19.1c-5.7-3.5-10.9-7.7-15.6-12.5
	c-2-1.8-3.6-4-4.8-6.4c-1.6-3.5-1.5-7.5-1.4-11.4c0.3-12.8,1-25.7,1.9-38.5"/>
<path class="st16" d="M19.5,430.6c0.2-4.8,2.9-9.1,7-11.5l3.1,6.2l-0.1-7.5c1.5-0.4,3.1-0.6,4.6-0.6c7.7,0.4,13.7,7,13.3,14.7
	c-0.4,7.7-7,13.7-14.7,13.3C25.1,444.9,19.1,438.3,19.5,430.6L19.5,430.6z"/>
<path class="st16" d="M44.5,525.6c3.5,6.9,12,9.6,18.9,6c6.9-3.5,9.6-12,6-18.9s-12-9.6-18.9-6c-3.1,1.6-5.5,4.3-6.7,7.6l8.8,7.1
	l-9.6-2.2C43,521.5,43.5,523.6,44.5,525.6z"/>
<path class="st16" d="M51.4,498.4c7.7,0.5,14.4-5.3,15-13c0.5-6.8-3.9-12.9-10.5-14.6l0.1,5.8l-3.2-6.3l0,0
	c-7.7-0.4-14.3,5.6-14.7,13.3c0,0,0,0,0,0.1c-0.1,1.6,0.1,3.2,0.6,4.8C40.5,494.1,45.5,498.1,51.4,498.4z"/>
<path class="st16" d="M17.4,475.7c7.7,0.3,14.2-5.7,14.5-13.5c0.3-7.7-5.7-14.2-13.5-14.5c-2.5-0.1-5,0.5-7.2,1.7l2.5,6.8l-5.1-4.9
	c-2.7,2.5-4.4,6-4.6,9.7c-0.1,1.3,0.1,2.6,0.3,3.9C5.8,471,11.1,475.4,17.4,475.7z"/>
<path class="st11" d="M21.4,434.4c3.2,0.3,6.4,1.4,9.6,1.6s6.8-0.6,8.9-3.1c1.1-1.4,1.7-3.1,2.6-4.6c0.9-1.4,2.1-2.5,3.5-3.3
	c3.3,7,0.4,15.3-6.6,18.7c-7,3.3-15.3,0.4-18.7-6.6c-0.4-0.9-0.8-1.8-1-2.8C20.3,434.3,20.8,434.3,21.4,434.4z"/>
<path class="st11" d="M17.4,475.7c7.7,0.4,14.3-5.6,14.7-13.3c0.1-2.3-0.3-4.6-1.3-6.7c-1.1,0.7-2.1,1.7-2.8,2.8
	c-1,1.5-1.6,3.3-2.8,4.6c-2.2,2.6-5.9,3.4-9.3,3.3s-6.7-1.1-10-1.4c-0.5,0-0.9-0.1-1.4-0.1C5.8,471,11.1,475.4,17.4,475.7z"/>
<path class="st11" d="M51.4,498.4c7.7,0.4,14.3-5.6,14.7-13.3c0.1-2.2-0.3-4.5-1.2-6.5c-1.2,0.8-2.2,1.7-3,2.8
	c-1.1,1.5-1.8,3.3-3,4.7c-2.4,2.6-6.4,3.6-9.9,3.5s-6.8-0.9-10.3-1.2C40.4,494.2,45.5,498.1,51.4,498.4z"/>
<path class="st11" d="M44.5,525.6c3.2,7.1,11.5,10.2,18.5,7.1c7.1-3.2,10.2-11.5,7.1-18.5c-1.2,0.8-2.2,1.7-3.1,2.8
	c-1.3,1.6-2.2,3.5-3.8,5c-2.9,2.8-7.5,4-11.6,4.1C49.3,526,46.9,525.9,44.5,525.6z"/>
<path class="st17" d="M79.6,546.3c0,0-11.1-0.3-14.4-2.7s-17-5.2-17.9-1.4s-16.7,19-4.1,19.1s29.1-1.9,32.4-4S79.6,546.3,79.6,546.3
	z"/>
<path class="st18" d="M42.9,559.9c12.5,0.1,29.1-2,32.4-4c2.5-1.5,3.6-7.1,3.9-9.7h0.4c0,0-0.7,8.9-4,11s-19.9,4.1-32.4,4
	c-3.6,0-4.8-1.3-4.8-3.2C38.9,559.2,40.2,559.9,42.9,559.9z"/>
</svg>
