<?xml version="1.0" encoding="utf-8"?>
<!-- Generator: Adobe Illustrator 24.0.0, SVG Export Plug-In . SVG Version: 6.00 Build 0)  -->
<svg version="1.1" id="f2059cf3-5beb-4c16-b86e-a491cbb2d73f"
	 xmlns="http://www.w3.org/2000/svg" xmlns:xlink="http://www.w3.org/1999/xlink" x="0px" y="0px" viewBox="0 0 1096.5 577"
	 style="enable-background:new 0 0 1096.5 577;" xml:space="preserve">
<style type="text/css">
	.st0{opacity:0.1;fill:#6C63FF;enable-background:new    ;}
	.st1{fill:#6C63FF;}
	.st2{opacity:0.1;enable-background:new    ;}
	.st3{fill:#FFD037;}
	.st4{fill:#A8A8A8;}
	.st5{opacity:0.2;enable-background:new    ;}
	.st6{fill:#514E7F;}
	.st7{fill:#464353;}
	.st8{fill:#A1616A;}
	.st9{fill:#FFFFFF;}
	.st10{fill:#FBBEBE;}
	.st11{opacity:5.000000e-02;enable-background:new    ;}
	.st12{fill:#3F3D56;}
	.st13{opacity:0.9;}
	.st14{fill:#3A3768;}
	.st15{fill:#E6E8EC;}
	.st16{opacity:0.3;fill:#3A3768;enable-background:new    ;}
	.st17{fill:url(#SVGID_1_);}
	.st18{fill:#2D293D;}
	.st19{opacity:5.000000e-02;}
	.st20{fill:#FFCDD3;}
	.st21{fill:#DCE6F2;}
	.st22{fill:#575988;}
	.st23{opacity:0.1;}
</style>
<title>mobile marketing</title>
<path class="st0" d="M641.8,93.7c-64.7-1.9-126.4-19.2-185.2-38.1s-117.2-39.9-180.4-50c-40.6-6.5-87.1-7.4-119.8,10.7
	c-31.5,17.4-41.7,47.4-47.2,75.2c-4.1,20.9-6.5,43,4.7,62.6c7.8,13.6,21.7,25,31.4,38.1c33.5,45.3,9.8,101.3-26.4,145.5
	c-17,20.8-36.8,40.6-49.9,62.7c-13.1,22.1-19.2,47.4-7.7,70c11.4,22.4,38.5,39.1,67.9,51c59.7,24,130,30.8,198.6,34.7
	c151.8,8.6,304.5,4.9,456.7,1.2c56.3-1.4,112.9-2.8,168.3-10c30.8-4,62.6-10.4,84.9-25.7c28.4-19.5,35.4-52.5,16.4-77
	c-31.9-41-120-51.2-142.3-95.2c-12.3-24.2,0.3-51.2,18.2-73.7c38.2-48.2,102.3-90.5,105.7-145.6c2.3-37.8-28.5-75.7-76.1-93.6
	c-49.9-18.8-119.2-16.4-156,14.7C765.6,83,699,95.3,641.8,93.7z"/>
<ellipse class="st0" cx="267.2" cy="557" rx="170.8" ry="17.4"/>
<ellipse class="st0" cx="986.7" cy="565.8" rx="77.6" ry="7.9"/>
<ellipse class="st1" cx="98.1" cy="514.5" rx="34.4" ry="5.8"/>
<path class="st1" d="M112.3,504.9c1.6-1.3,2.7-3,3.3-4.9c0.4-2-0.4-4.3-2.3-5c-2.1-0.8-4.3,0.6-6,2.1c-1.7,1.5-3.7,3.2-5.9,2.8
	c2.3-2.1,3.4-5.3,2.7-8.4c-0.1-0.6-0.4-1.2-0.8-1.7c-1.2-1.2-3.3-0.7-4.7,0.3c-4.4,3.1-5.7,9.2-5.7,14.6c-0.5-2-0.1-4-0.1-6
	c0-2-0.6-4.3-2.3-5.3c-1-0.6-2.2-0.8-3.4-0.8c-2-0.1-4.2,0.1-5.6,1.6c-1.7,1.8-1.3,4.9,0.2,6.8c1.5,2,3.7,3.2,5.8,4.6
	c1.7,1,3.1,2.3,4.1,3.9c0.1,0.2,0.2,0.5,0.3,0.7h12.5C107.4,508.9,110,507.1,112.3,504.9z"/>
<path class="st1" d="M830.6,469c0,0,8.7,11.3-4,28.4c-12.7,17.1-23.1,31.5-18.8,42.1c0,0,19.1-31.7,34.6-32.2S847.6,488.1,830.6,469
	z"/>
<path class="st2" d="M830.6,469c0.8,1.1,1.3,2.3,1.8,3.5c15.2,17.8,23.2,34.4,8.7,34.8c-13.6,0.4-29.8,24.6-33.7,30.8
	c0.1,0.5,0.3,0.9,0.5,1.4c0,0,19.1-31.7,34.6-32.2S847.6,488.1,830.6,469z"/>
<path class="st3" d="M846.6,483.5c0,4-0.5,7.2-1,7.2s-1-3.2-1-7.2s0.6-2.1,1.1-2.1S846.6,479.5,846.6,483.5z"/>
<path class="st3" d="M852.2,488.2c-3.5,1.9-6.5,3.1-6.8,2.6s2.4-2.4,5.9-4.3s2.1-0.5,2.4,0S855.7,486.3,852.2,488.2z"/>
<path class="st1" d="M784.9,469c0,0-8.7,11.3,4,28.4c12.7,17.1,23.1,31.5,18.9,42.1c0,0-19.1-31.7-34.6-32.2S767.8,488.1,784.9,469z
	"/>
<path class="st2" d="M784.9,469c-0.8,1.1-1.4,2.3-1.8,3.5c-15.2,17.8-23.2,34.4-8.7,34.8c13.6,0.4,29.8,24.6,33.7,30.8
	c-0.1,0.5-0.3,0.9-0.5,1.4c0,0-19.1-31.7-34.6-32.2S767.8,488.1,784.9,469z"/>
<path class="st3" d="M768.8,483.5c0,4,0.5,7.2,1,7.2s1-3.2,1-7.2s-0.6-2.1-1.1-2.1S768.8,479.5,768.8,483.5z"/>
<path class="st3" d="M763.2,488.2c3.5,1.9,6.5,3.1,6.8,2.6s-2.3-2.4-5.8-4.3s-2.1-0.5-2.4,0S759.8,486.3,763.2,488.2z"/>
<path class="st4" d="M771.5,538.1c0,0,24.2-0.8,31.5-5.9s37.2-11.4,39-3.1s36.3,41.4,9,41.6s-63.5-4.3-70.7-8.7
	S771.5,538.1,771.5,538.1z"/>
<path class="st5" d="M851.6,567.8c-27.3,0.2-63.5-4.3-70.7-8.7c-5.5-3.4-7.8-15.5-8.5-21.1h-0.8c0,0,1.5,19.5,8.8,23.9
	s43.4,8.9,70.7,8.7c7.9-0.1,10.6-2.9,10.5-7C860.4,566.2,857.4,567.8,851.6,567.8z"/>
<path class="st1" d="M961.1,552.8c3.8,0.5,7.7,0.8,11.3-0.4c0.6-0.2,1.2-0.6,1.1-1.1c0-0.2-0.1-0.4-0.3-0.5c-1.4-2-2.5-4.2-3.4-6.5
	c0-0.1-0.1-0.2-0.2-0.3c-0.1,0-0.2,0-0.4,0c-1.7,0.4-3.1,1.5-4.8,2c-0.8,0.2-1.7,0.3-2.6,0.2c-0.7-0.1-1.8-0.7-2.4-0.6
	C959.8,548,960.8,550.3,961.1,552.8z"/>
<path class="st1" d="M1032.2,546.5c2.5-1.7,5.1-3.5,6.5-6.1c0.1-0.2,0.2-0.3,0.2-0.5c0-0.2-0.1-0.4-0.2-0.5
	c-1.4-2.2-3.2-4.2-5.3-5.7c-1.1,0.8-2.1,1.7-3,2.7c-0.6,0.7-2.3,1.7-2.4,2.7c0,0.6,0.7,1.2,1,1.7c0.4,0.6,0.8,1.2,1.2,1.9
	C1030.4,543,1032.4,546.4,1032.2,546.5z"/>
<path class="st6" d="M975.8,560.4c0.1,0.6-0.1,1.2-0.4,1.7c-0.3,0.3-0.6,0.5-1,0.6c-5.3,1.9-11.3-0.5-16.6,1.4
	c-1.1,0.4-2.1,0.9-3.2,1.3c-1.3,0.4-2.6,0.6-4,0.7c-1.9,0.2-3.7,0.3-5.6,0.3c-1.4,0.1-2.8,0-4.2-0.4c-1.4-0.4-2.6-1.3-3.2-2.6
	c-0.3-0.6-0.3-1.2-0.2-1.8c0.1-0.2,0.2-0.4,0.3-0.6c0.4-0.4,0.8-0.7,1.2-1l1.9-1.3c0.9-0.6,1.9-1.2,2.9-1.6c0.8-0.2,1.6-0.4,2.4-0.6
	c2.7-0.8,4.8-3,6.7-5l2.6-2.8c0.2-0.3,0.6-0.6,0.9-0.7c0.4-0.1,0.7-0.2,1.1-0.1c2.6,0.2,5,1,7.2,2.4c0.6,0.4,1.1,0.8,1.8,1
	c1.7,0.5,3.5,0.3,5-0.6c0.7-0.4,0.5-0.6,0.8-1.2c0.3-0.6,1-1.1,1.6-0.5c0.2,0.2,0.3,0.4,0.4,0.7c0.6,1.9,0.4,3.9,0.4,5.9
	c0,0.3,0,0.6,0.1,0.9c0.1,0.3,0.3,0.6,0.5,0.8c0,0.1,0.1,0.1,0.1,0.2C975.8,558.5,975.9,559.5,975.8,560.4z"/>
<path class="st7" d="M975.8,560.4c0.1,0.6-0.1,1.2-0.4,1.7c-0.3,0.3-0.6,0.5-1,0.6c-5.3,1.9-11.3-0.5-16.6,1.4
	c-1.1,0.4-2.1,0.9-3.2,1.3c-1.3,0.4-2.6,0.6-4,0.7c-1.9,0.2-3.7,0.3-5.6,0.3c-1.4,0.1-2.8,0-4.2-0.4c-1.4-0.4-2.6-1.3-3.2-2.6
	c-0.3-0.6-0.3-1.2-0.2-1.8c0.1-0.2,0.2-0.4,0.3-0.6c0.3,0.6,0.5,1.5,0.7,1.8c0.5,0.9,1.4,1.6,2.5,1.8c0.8,0,1.5-0.1,2.2-0.3
	c4.8-1.2,9.8-1.2,14.4-3c1.5-0.7,3.1-1.3,4.7-1.8c1.7-0.3,3.4-0.4,5.1-0.4c2.7-0.2,5.3-1,7.9-1.4
	C975.8,558.5,975.9,559.5,975.8,560.4z"/>
<path class="st6" d="M1044.2,546.2c-0.2,2-1.5,3.7-2.9,5.2c-1.5,1.4-2.8,2.8-4.1,4.4c-1.4,2.1-2,4.7-3.8,6.4
	c-0.7,0.7-1.4,1.2-2.3,1.7c-0.9,0.5-1.9,1-2.9,1.3c-2.6,0.8-5.5,0.7-8.3,0.5c-0.9,0-1.8-0.2-2.6-0.5c-0.4-0.2-0.8-0.4-1.1-0.7
	c-0.7-0.4-1.2-1-1.7-1.7c-0.2-0.4-0.3-0.8-0.2-1.2c0.2-0.5,0.5-0.9,0.8-1.2c0.6-0.6,1.3-1.2,2-1.8c1-0.6,1.9-1.4,2.6-2.3
	c0.5-0.7,0.8-1.5,1-2.3c0.4-1.4,0.6-2.9,0.7-4.3c0-1,0.1-2,0.3-2.9c0.4-1.5,1.5-2.8,1.4-4.4c0-0.2,0-0.5,0.1-0.7
	c0.1-0.2,0.3-0.3,0.5-0.3c0.9-0.3,1.8-0.5,2.7-0.6c0.9-0.1,1.8,0.3,2.5,1c0.4,0.5,0.6,1.1,1.2,1.3c0.3,0.1,0.6,0.1,0.8,0
	c1.4-0.1,2.9-0.3,3.9-1.2c1-0.9,1.6-2.2,1.7-3.6c0-0.5-0.2-1.1,0.6-1.2c0.6-0.1,1.1,0.5,1.4,1c1.2,1.4,2.1,3.1,2.7,4.8
	c0.2-0.1,0.3-0.1,0.5-0.1c0.7,0,1.4,0.3,1.8,0.9C1044.2,544.4,1044.4,545.3,1044.2,546.2z"/>
<path class="st7" d="M1044.2,546.2c-0.2,2-1.5,3.7-2.9,5.2c-1.5,1.4-2.8,2.8-4.1,4.4c-1.4,2.1-2,4.7-3.8,6.4
	c-0.7,0.7-1.4,1.2-2.3,1.7c-0.9,0.5-1.9,1-2.9,1.3c-2.6,0.8-5.5,0.7-8.3,0.5c-0.9,0-1.8-0.2-2.6-0.5c-0.4-0.2-0.8-0.4-1.1-0.7
	c-0.7-0.4-1.2-1-1.7-1.7c0.5-0.3,1.1-0.4,1.7-0.4c1.2,0.1,2.1,1.2,3.3,1.6c1.7,0.5,3.3-0.7,5-1.1c1.1-0.3,2.3-0.2,3.4-0.5
	c0.9-0.4,1.8-0.9,2.5-1.5c1-0.7,1.9-1.6,2.7-2.6c0.6-1,1.2-2,1.6-3.1c0.9-2.1,2-4.1,3.2-6c0.2-0.3,0.4-0.6,0.6-0.8
	c0.3-0.2,0.6-0.4,0.8-0.6c1.1-0.8,1.6-2.3,2-3.7c0.1-0.4,0.3-0.8,0.4-1.2c0.7,0,1.4,0.3,1.8,0.9
	C1044.2,544.4,1044.4,545.3,1044.2,546.2z"/>
<path class="st8" d="M925.3,369.3c1.4,1.1,2.6,2.4,3.4,4c0.8,1.6,5.4,13.6,5.1,15.4c1.5-1.5,7.4-1.8,8.9-3.3c0.6-0.6,4-3.8,4.5-4.5
	s4.3-2.3,4.7-3c1.5-2.8-11-13.2-9.4-16c0.1-0.1,0.1-0.3,0.1-0.4c0-0.1-0.1-0.2-0.2-0.3c-1.1-1-2.3-1.8-3.6-2.5
	c-1.3-0.7-2.3-1.9-2.8-3.3c-1.2,0.5-2.3,1.3-3.2,2.2c-2.3,2-4.5,4-6.8,6c-0.9,0.8-2.6,1.9-3,3S924.4,368.6,925.3,369.3z"/>
<path class="st6" d="M945.6,364.8c-1.9,1.3-3.7,2.8-5.4,4.4c-1.6,1.5-3,3.3-3.4,5.5c-0.2,0.8-0.1,1.7-0.3,2.6
	c-0.6,3.7-3.8,6.4-5.2,9.9c-0.4,1.1-0.7,2.2-0.9,3.3c-0.4,2.1-0.6,4.3-0.6,6.5c0,2.1,2,3.6,2.8,5.6c0.6,2,1.1,4,1.3,6
	c0.8,3.8,2,7.5,3.4,11.2c2.8,7.7,11.9,29.1,14.7,36.8c8.6-2.2,31.4-7.1,39-11.6c2.5-1.5-17.6-18.5-14.8-19.7
	c0.3-0.1,0.6-0.3,0.8-0.6c0.1-0.3,0.1-0.6,0-0.8c-2.7-11.8-11.2-21.5-15-33.1c-1.3-4-3.7-7.4-5.5-11.2c-1.7-3.4-2.5-7.2-4.5-10.5
	c-0.4-0.7-0.9-1.3-1.4-1.8c-0.5-0.4-1-0.7-1.6-1C947.7,365.7,946.6,365.4,945.6,364.8z"/>
<circle class="st8" cx="925.7" cy="354.5" r="13.4"/>
<path class="st7" d="M939.4,360.8c1.4-1.3,3.4-1.5,5-0.7c1,0.4,1.6,1.4,1.5,2.4l6.6,0.1c1.1,0,2.1,0.1,3.2,0.3c1,0.2,2,0.8,2.6,1.7
	c0.1,0.1,0.2,0.2,0.3,0.3c0.1,0,0.2,0,0.3-0.1c1-0.5,2.2-0.7,3.3-0.6c3.6,0.2,6.9,2,9.7,4.3c0.5,0.3,0.9,0.8,1.2,1.4
	c0.2,0.8,0,1.7,0.5,2.2c0,6.3,2.1,12.1,3.6,18.2c0.2,1.1,1.3,2,2,2.9c0.9,0.9,1.6,2,2.2,3.2c1.2,3.2-0.5,6.9,0.7,10
	c0.6,1.3,1.4,2.5,2.3,3.6c1.1,1.3,1.7,3,1.9,4.7c0,0.8,0,1.5,0,2.3c0.1,1,0.3,2,0.5,3c0.5,1.8,1,3.7,1.5,5.5c0.8,2.9,2,6.1,4.6,7.7
	c-6.4,1.1-13.1,2.1-19.2-0.1c-0.8-0.3-1.7-0.7-2.4-1.2c-2.2-1.6-3.3-4.2-4.2-6.8c-1.1-2.8-2.1-5.7-2.4-8.7c0-1-0.1-1.9-0.4-2.9
	c-0.6-1.7-2.3-2.6-3.8-3.6c-1.7-0.9-3.2-2.1-4.5-3.5c-1.3-1.4-2-3.4-1.8-5.3c0.1-0.9,0.5-1.8,0.5-2.8c0.1-1-0.4-1.9-1.3-2.3
	c-4.6-1.4-6.9-6.9-7.9-11.7c-0.4-2.5-0.6-5-0.6-7.5l-0.1-4.8c-1.3-1.2-2.1-2.8-2.1-4.6c0.1-0.5,0.1-1,0-1.5
	c-0.2-0.6-0.6-1.2-1.1-1.7C940.9,363.3,940,362.1,939.4,360.8z"/>
<path class="st7" d="M925.1,376.2c-0.1,1.5,0.2,3-0.1,4.5c-0.1,0.6-0.4,1.1-0.5,1.7c-0.5,2.1-0.3,4.3,0.6,6.3c0.9,2,2,3.8,3.2,5.6
	c0.4,0.6,0.8,1.2,1,1.9c0.2,0.7,0.3,1.5,0.4,2.2c0.3,3,0.9,6,1.6,8.9c0.6,2.6,1.4,5.1,3.1,7.1c0.3,0.4,0.8,0.8,1.3,0.9
	c0.4,0,0.8-0.1,1.1-0.2l3.4-1.3c0.3-0.1,0.6-0.2,0.8-0.4c0.3-0.4,0.5-0.9,0.5-1.3c0.2-2.8-0.6-5.5-1.5-8.1
	c-2.8-7.9-6.5-15.5-8.3-23.7c-0.5-2.3-0.8-5.8-2.4-7.6c-0.7-0.7-0.5-0.4-1.3,0c-0.4,0.2-0.8,0.4-1.2,0.6
	C925.8,373.9,925.2,375,925.1,376.2z"/>
<path class="st7" d="M990.6,425.3"/>
<path class="st1" d="M935.4,391.2c0.9,4.8,1.8,9.6,2.8,14.5l13.3-3.5c0.1-1.4-0.6-2.7-1.2-4c-1.2-3-1.2-6.4-2.2-9.6
	c-0.7-2.4-2-4.6-2.7-7c-0.4-1.4-0.6-2.8-1-4.2c-0.4-1.4-1-2.7-1.6-4c-0.8-1.9-1.7-3.7-2.9-5.4c-1.7,0.6-3.5,1.4-4.5,2.9
	c-0.5,0.9-0.8,1.9-0.8,2.9c-0.2,3,0.8,6,0.5,9C934.8,385.5,934.9,388.4,935.4,391.2z"/>
<path class="st7" d="M951.7,455.4c0.7,2.8-0.3,5.8-1.2,8.6c-1.3,4.2-2.2,8.6-2.7,13c0,1.1-0.3,2.3-0.7,3.3c-0.5,0.9-1,1.8-1.6,2.6
	c-1.3,2.4-1.3,5.3-1,8c0.2,1.8,0.5,3.6,0.8,5.3c0.4,2.1,1,4.4,0.3,6.5c1.1-0.2,1.8,1.1,1.7,2.2c0,1.1-0.4,2.2,0.1,3.2
	c1.3,0.5,1.3,2.3,1.3,3.7c0,2.4,0.3,4.8,0.9,7.2c2,9.5,4.1,19,6.3,28.4c4.8,1.5,10.4,3,15,1c0.9-0.3,1.6-1,1.9-1.9
	c0-0.5,0-1-0.2-1.5l-2.2-7.9c-0.7-1.9-0.9-3.8-0.8-5.8c0.2-1.5,0.8-3,0.1-4.3c-0.2-0.4-0.6-0.8-0.9-1.2c-1.1-1.7-0.5-3.9-0.4-5.9
	c0-0.5,0-0.9-0.1-1.3c-0.2-0.5-0.4-1-0.6-1.5c-1.8-3.5-2.6-7.4-2.5-11.3c0.1-0.5,0-1-0.2-1.5c-0.1-0.2-0.3-0.4-0.4-0.6
	c-0.1-0.4,0-0.7,0.1-1.1c-0.7-0.5-1.2-1-1.7-1.7c1.1-0.7,1.5-2.3,0.7-3.4c-0.1-0.1-0.2-0.3-0.3-0.4c0.7-0.1,1.1-0.8,1-1.5
	c-0.1-0.3-0.2-0.5-0.4-0.7c-0.3-0.2-0.6-0.3-0.8-0.6c-0.3-0.4-0.1-1,0.2-1.4l1.3-2.4c1-1.8,1.2-4,2.3-5.7c1.4-2.5,2.6-5.2,3.5-8
	l3.8-10.5l2.6,2.2c0.9,0.7,1.6,1.5,2.1,2.4c0.4,0.9,0.6,1.9,0.7,2.9c0.9,5.7,4.5,10.7,5.9,16.3c0.2,1.3,0.6,2.5,1.2,3.6
	c0.3,0.3,0.5,0.7,0.7,1c0.2,0.6,0.3,1.1,0.3,1.7c0.2,2.3,1.5,4.5,3.4,5.8c1.3,0.8,2.9,1.5,3.5,2.8c0.1,0.4,0.3,0.8,0.6,1.2
	c0.6,0.7,1.9,0.8,2.2,1.7c0.1,0.5-0.1,1.1,0.2,1.6c0.2,0.2,0.4,0.4,0.6,0.5l3.7,1.9c4.1,2.1,6.2,6.8,9.3,10.3c1.1,1.1,2,2.4,2.8,3.7
	c1.3,2.4,1.9,5.3,4.1,6.8c0.6,0.3,1.1,0.7,1.6,1.2c0.7,0.9,0.4,2.2,0.5,3.4s1,2.5,2.1,2.2c-0.4,1.4-0.4,2.9,0,4.3
	c4.8-0.2,9.4-2.1,13.1-5.3c1.1-0.9,2.1-2.1,2.1-3.6c0-0.2,0-0.5-0.2-0.7c-0.2-0.3-0.5-0.5-0.8-0.6c-3.5-1.9-4.5-6.2-6.2-9.7
	c-1.5-3.1-3.8-5.8-5.7-8.7c-4.1-6.2-6.9-13.7-13.1-17.8c-1.4-0.9-3-1.7-3.6-3.2c-0.3-0.9-0.5-1.8-0.7-2.6c-0.2-0.9-1-1.6-1.9-1.7
	c0.4-1.3,0.5-2.7,0.4-4.1c0-0.6,0-1.2-0.2-1.8c-0.2-0.6-0.5-1.2-0.9-1.8c-1.6-2.8-2.4-5.9-2.3-9.1c0-1.7,0.3-3.3-0.2-4.9
	c-0.2-0.8-0.7-1.5-1-2.3c-0.5-1.4-0.7-2.8-0.7-4.3l-0.3-5.5c0-1.8-0.3-3.6-0.7-5.4c-1.2-4.2-2.3-22-6.2-24
	c-3.9-2-10.6,11.6-14.9,11.9c-1.9,0.1-3.9,0.5-5.7,1.1c-2.9,1.1-5.3,3.1-7.7,5.1l-8,6.8C955.2,453.2,953.5,454.4,951.7,455.4z"/>
<path class="st7" d="M913.1,339.6c1.9-2.4,4.8-3.8,7.8-3.8c3,0,6,0.7,8.6,2.2c0.8,0.4,1.6,0.8,2.5,1c1.4,0.3,3-0.1,4.3,0.6
	c1.7,0.9,2,3.2,1.9,5.1c-0.1,1.9-0.5,4,0.5,5.7c0.4,0.5,0.7,1,1,1.5c0.3,1,0.3,2.1-0.1,3.2c-0.6-0.7-1.1-1.4-1.7-2.1
	c-0.6-0.7-1.6-1.1-2.3-0.6c-0.7,0.5-0.7,1.4-0.8,2.2c0,0.8-0.2,1.8-1,2c-0.6,0.1-1.3-0.1-1.7-0.7c-1.3-1.6-0.8-4.1-2.1-5.7
	c-0.7-0.9-2-1.3-2.6-2.3c-0.5-0.7-0.7-1.7-1.1-2.5c-0.5-0.8-1.5-1.4-2.3-0.8c-0.2,0.2-0.5,0.5-0.6,0.8c-0.9,1.3-2.6,1.8-4.1,1.2
	c-0.6-0.3-1.2-0.6-1.8-0.8c-0.8,0-1.6,0.4-2,1.1c-0.4,0.7-0.6,1.5-0.5,2.4c0,1.1,0.2,2.3-0.4,3.3c-0.3,0.3-0.6,0.6-1,0.8
	c-1,0.6-2.3,1-3.1,0.3c-0.6-0.6-0.9-1.4-0.7-2.2c0.2-0.8,0.4-1.6,0.7-2.3c0.5-1.8-0.1-3.7,0.4-5.4
	C911.4,342.3,912.2,340.9,913.1,339.6z"/>
<path class="st1" d="M920.3,379.6c-0.1,0.4,0,0.8,0.1,1.2c0.2,0.3,0.4,0.5,0.7,0.6c1.9,1.2,4.1,1.9,6.3,2c0.3,0,0.6,0.1,0.8,0.2
	c0.5,0.5,0.6,1.2,0.4,1.8c-0.3,0.6-0.4,1.2-0.4,1.9c0.2,1.2,1.6,1.7,2.8,1.9c1.7,0.3,3.4,0,4.8-0.9c0.9-0.8,1.6-1.8,2-3
	c3.3-7.5,4.4-15.7,7.7-23.2c0.3-0.5,0.4-1,0.5-1.5c0.1-0.6-0.2-1.1-0.6-1.4c-0.6-0.4-1.6-0.2-2-0.8c-0.2-0.3-0.2-0.7-0.4-1
	c-0.4-0.7-1.4-0.6-2.1-1c-0.5-0.3-0.9-0.8-1.5-1c-0.6,0-1.2,0.2-1.6,0.7c-1.9,1.8-2.9,4.4-4,6.8c-1.7,3.7-3.6,7.3-5.8,10.7
	c0.3-0.4-1.2-3.4-1.8-3.5c-1-0.2-2.3,1.6-2.9,2.2C921.7,374.4,920.6,377,920.3,379.6z"/>
<rect x="927.1" y="390.2" class="st9" width="64.6" height="64.6"/>
<path class="st1" d="M959.9,411.9v-8.5h-21.2v38.2h41.4v-29.7H959.9z M947.2,437.4H943v-4.2h4.2V437.4z M947.2,428.9H943v-4.2h4.2
	V428.9z M947.2,420.4H943v-4.2h4.2V420.4z M947.2,411.9H943v-4.2h4.2V411.9z M955.7,437.4h-4.2v-4.2h4.2L955.7,437.4z M955.7,428.9
	h-4.2v-4.2h4.2L955.7,428.9z M955.7,420.4h-4.2v-4.2h4.2L955.7,420.4z M955.7,411.9h-4.2v-4.2h4.2L955.7,411.9z M975.9,437.4h-15.9
	v-4.2h4.2v-4.2h-4.2v-4.2h4.2v-4.2h-4.2v-4.2h15.9V437.4z M972.1,420.4h-4.2v4.2h4.2V420.4z M972.1,428.9h-4.2v4.2h4.2V428.9z"/>
<path class="st8" d="M991.2,425.8c-1.1,1-2.1,2.1-3.1,3.2c-0.9,1.2-1.4,2.6-1.4,4.1c0,0.4,0.1,0.9,0.4,1.2c0.3,0.4,0.7,0.5,1.2,0.4
	c0.2-0.1,0.4-0.3,0.6-0.5c0.6-0.7,1.2-1.4,1.9-2.1c0.2-0.2,0.6-0.5,0.9-0.4c0.1,0.1,0.3,0.1,0.4,0.3c0.4,0.3,0.7,0.8,0.8,1.3
	c0.1,0.9-0.2,1.8-0.9,2.4c-0.6,0.6-1.2,1.4-1.5,2.2c-0.1,0.2-0.1,0.5,0,0.7c0.1,0.2,0.3,0.3,0.4,0.4c1.6,0.9,3.6,1,5.4,0.3
	c1.2-0.5,2.1-1.3,3.3-1.7c0.5-0.1,1-0.3,1.5-0.5c0.7-0.4,1.1-1.1,1.3-1.9c0.1-0.8,0.2-1.6,0.1-2.4c-0.1-3.1-0.8-6.2-2-9
	c-0.1-0.2-0.2-0.4-0.3-0.5c-0.2-0.1-0.4-0.2-0.5-0.2c-1.4-0.1-3.8-0.9-5.2-0.4c-0.5,0.3-0.9,0.6-1.2,1.1
	C992.8,424.2,991.2,425.5,991.2,425.8z"/>
<path class="st7" d="M990.7,424.6c0-1.4-1.7-4.7,1-5c0-1.5-2.1-2.4-1.7-4c0.1-0.5,0.6-1,0.6-1.5c0.2-1.5-2.6-2.3-2.1-3.8
	c0.2-0.6,0.8-0.9,0.9-1.5c0.3-1.3-2-1.9-2.1-3.2c0-0.5,0.2-0.9,0.2-1.3c0-0.6-0.5-1-0.8-1.5c-0.7-1.3-0.4-3.2-1.7-3.9
	c0.8,0.1,1.2-1.2,0.8-2c-0.4-0.8-1.1-1.4-1.1-2.3c0-0.3,0-0.6,0-1c-0.2-0.8-1.6-0.9-1.8-1.7c0-0.3,0-0.6,0-0.9
	c-0.1-0.6-0.7-1-1.4-1.2c-0.6-0.1-1.3-0.3-1.8-0.6c-0.4-0.3-0.8-0.8-1.3-0.5c-0.2,0.1-0.2,0.3-0.4,0.4c-0.5,0.6-1.5,0.3-2.1-0.1
	c-1.9-1.3-2.8-3.6-3.2-5.8s-0.4-4.6-0.9-6.8c-0.2-0.7-0.4-1.4-0.6-2c-0.4-0.6-0.7-1.3-1-2c-0.1-1.3,2.6-0.4,3.6-0.3
	c1,0.1,2,0.3,2.9,0.6c1,0.4,2,0.8,3,1.3c4.1,1.8,9,2,12.3,5.1c1.1,1,2,2.3,3.4,2.8c0.6,0.1,1.3,0.3,1.9,0.5c1.6,0.7,1.8,2.8,2.7,4.3
	c0.3,0.4,0.5,0.8,0.7,1.2c0.2,0.5,0.2,1.1,0.2,1.6l0.1,3.9c0.2,6.6,0.4,13.2-0.3,19.7c-0.2,2.2-0.6,4.4,0.1,6.5
	c0.2,0.6,0.4,1.1,0.5,1.7c0.1,0.7,0.2,1.4,0.2,2l0.1,2.5c0,0.2,0,0.4-0.1,0.6c-0.2,0.2-0.4,0.2-0.7,0.2c-3.6-0.3-7.1-2.3-10.5-1.1"
	/>
<path class="st8" d="M924.7,414.2c-0.2,0.1-0.3,0.2-0.4,0.3c-0.7,1-0.7,2.4,0,3.4c0.1,0.1,0.2,0.2,0.2,0.3c0,0.2,0,0.4-0.1,0.6
	c-0.4,0.7-0.3,1.5,0.3,2.1c0.3,0.2,0.6,0.3,0.8,0.6c0.3,0.5-0.1,1.1,0,1.7c0.1,0.7,1,1.1,1.7,1.2c0.6,0.1,1.2,0,1.6-0.4
	c0.3-0.4,0.3-1,0-1.5c-0.3-0.4-0.7-0.8-1.1-1.1c0.8,0,1.5-0.7,1.6-1.5c0.1-0.8-0.3-1.6-0.9-2.1c-0.1-0.1-0.3-0.2-0.4-0.4
	c0-0.2,0.2-0.5,0.3-0.7c0.8-0.8,1.5-2.9-0.1-3.3c-0.6-0.1-1.1-0.1-1.7,0.1c-0.4,0.1-0.4,0.4-0.7,0.5
	C925.3,414.1,925,414,924.7,414.2z"/>
<path class="st2" d="M940.9,357c-0.8,0-1.6,0.4-2.1,1.1c-0.5,0.9-0.8,1.8-0.9,2.8c-0.5,3.2-1.6,6.2-3.3,9"/>
<path class="st2" d="M943.8,359.2c-1.1,0-2.2,0.7-2.7,1.7c-0.4,0.9-0.6,1.8-0.7,2.8c-0.5,2.1-1.4,4.1-2.8,5.9"/>
<path class="st10" d="M325.1,415.3c0.5,5.4-3.6,10.6-2.4,15.9c0.3,1.1,0.7,2.2,0.9,3.3c0.5,3.1-1.4,6.1-3.2,8.7l-15.3,22.5
	c-0.6,1-1.4,1.9-2.2,2.7c-2.9,2.6-7.3,2.3-11.2,3.1c-2.7,0.6-5.3,1.7-7.5,3.3c-0.2,0.2-0.3,0.5-0.1,0.7c1.3,1.8,3.4,2.7,5.6,2.6
	c0.4,0.5,0,1.3-0.6,1.7c-0.9,0.6-2,0.7-2.1,2.1c-0.1,0.5,0,1,0.3,1.4c0.6,0.9,1.6,1.6,2.7,1.9c5.3,1.6,11-1.2,15-5.1
	c4-3.9,6.8-8.8,10.7-12.7c2.2-2.2,4.6-4.1,6.8-6.2c4.4-4.2,7.9-9.4,11.2-14.5c1.1-1.5,1.9-3.2,2.4-4.9c0.4-1.8,0.2-3.6,0.7-5.4
	c0.6-2.3,2.3-4.1,3.7-6c2.7-3.7,4.5-8.3,4.2-12.9s-3.2-9.2-7.6-10.7c-1.4-0.5-2.9-0.6-4.3-0.3c-1.8,0.6-3.1,2-4.3,3.4l-2.9,3.4
	c-0.7,0.7-1.3,1.6-1.7,2.6c-0.4,1-0.1,2.1,0.6,2.9"/>
<path class="st11" d="M325.1,415.3c0.5,5.4-3.6,10.6-2.4,15.9c0.3,1.1,0.7,2.2,0.9,3.3c0.5,3.1-1.4,6.1-3.2,8.7l-15.3,22.5
	c-0.6,1-1.4,1.9-2.2,2.7c-2.9,2.6-7.3,2.3-11.2,3.1c-2.7,0.6-5.3,1.7-7.5,3.3c-0.2,0.2-0.3,0.5-0.1,0.7c1.3,1.8,3.4,2.7,5.6,2.6
	c0.4,0.5,0,1.3-0.6,1.7c-0.9,0.6-2,0.7-2.1,2.1c-0.1,0.5,0,1,0.3,1.4c0.6,0.9,1.6,1.6,2.7,1.9c5.3,1.6,11-1.2,15-5.1
	c4-3.9,6.8-8.8,10.7-12.7c2.2-2.2,4.6-4.1,6.8-6.2c4.4-4.2,7.9-9.4,11.2-14.5c1.1-1.5,1.9-3.2,2.4-4.9c0.4-1.8,0.2-3.6,0.7-5.4
	c0.6-2.3,2.3-4.1,3.7-6c2.7-3.7,4.5-8.3,4.2-12.9s-3.2-9.2-7.6-10.7c-1.4-0.5-2.9-0.6-4.3-0.3c-1.8,0.6-3.1,2-4.3,3.4l-2.9,3.4
	c-0.7,0.7-1.3,1.6-1.7,2.6c-0.4,1-0.1,2.1,0.6,2.9"/>
<path class="st8" d="M208.4,438.3c0.9,2.7,1.7,5.4,2.7,8c1.9,4.6,4.3,8.9,7.1,13c1.8,2.7,3.8,5.2,5.9,7.7c2.6,3.1,5.5,6.2,6.5,10.1
	c0.5,2.3,0.4,4.7,0.6,7c0.2,2.3,1,4.8,2.9,6.2c1.4,0.9,3,1.4,4.7,1.6c1.2,0.2,2.7,0.2,3.3-0.8c0.2-0.4,0.3-0.9,0.3-1.3l0.3-3.4
	c0.1-0.7,0.3-1.7,1.1-1.7s1.1,0.9,1.7,1.4c0.9,0.5,2,0.1,2.5-0.8c0,0,0-0.1,0.1-0.1c0.4-1,0.4-2,0.1-3c-1-3.9-3.7-7.2-7.3-9
	c-1.2-0.5-2.4-1.1-3.6-1.9c-1.1-1-2.1-2.2-2.8-3.5c-6.5-10.6-13-21.4-17.5-32.9c-0.9-2.1-1.5-4.3-1.8-6.5c-0.1-2.3,0-4.6,0.3-6.8
	c0.3-4.1-0.1-8.2-1.1-12.2c-0.2-1-0.6-2-1.2-3c-1.9-2.9-6.3-3.3-9.1-1.3c-2.1,1.6-3.4,4-3.6,6.6c-0.2,2.3,1.1,4.7,1.8,6.8
	C204.2,425,206.3,431.7,208.4,438.3z"/>
<path class="st11" d="M208.4,438.3c0.9,2.7,1.7,5.4,2.7,8c1.9,4.6,4.3,8.9,7.1,13c1.8,2.7,3.8,5.2,5.9,7.7c2.6,3.1,5.5,6.2,6.5,10.1
	c0.5,2.3,0.4,4.7,0.6,7c0.2,2.3,1,4.8,2.9,6.2c1.4,0.9,3,1.4,4.7,1.6c1.2,0.2,2.7,0.2,3.3-0.8c0.2-0.4,0.3-0.9,0.3-1.3l0.3-3.4
	c0.1-0.7,0.3-1.7,1.1-1.7s1.1,0.9,1.7,1.4c0.9,0.5,2,0.1,2.5-0.8c0,0,0-0.1,0.1-0.1c0.4-1,0.4-2,0.1-3c-1-3.9-3.7-7.2-7.3-9
	c-1.2-0.5-2.4-1.1-3.6-1.9c-1.1-1-2.1-2.2-2.8-3.5c-6.5-10.6-13-21.4-17.5-32.9c-0.9-2.1-1.5-4.3-1.8-6.5c-0.1-2.3,0-4.6,0.3-6.8
	c0.3-4.1-0.1-8.2-1.1-12.2c-0.2-1-0.6-2-1.2-3c-1.9-2.9-6.3-3.3-9.1-1.3c-2.1,1.6-3.4,4-3.6,6.6c-0.2,2.3,1.1,4.7,1.8,6.8
	C204.2,425,206.3,431.7,208.4,438.3z"/>
<path class="st12" d="M338,539.7c-3.3,2-7.5,2.2-11.4,1.7c-0.6-0.1-1.4-0.1-1.8,0.4c-0.6,0.7,0.1,1.7,0.8,2.3c2.3,1.7,5,2.8,7.8,3.2
	c2.5,0.4,5.1,0.5,7.7,0.5c7,0.1,14,0.2,21-0.8c0.4,0,0.8-0.1,1.1-0.3c0.4-0.3,0.7-0.8,0.9-1.3c0.3-1.9-0.4-3.8-1.8-5
	c-1.5-1.2-3.1-2.1-4.9-2.6l-6.1-2.4c-1.4-0.6-3.7-2-5.3-1.9C343.2,533.7,340.4,538.3,338,539.7z"/>
<path class="st12" d="M353.3,554c-2.8,2.5-6.4,3.9-10.2,3.8c-1,0-2.3,0.2-2.3,1.1c0,0.3,0.1,0.6,0.3,0.8c1.2,2,3.1,3.5,5.3,4.1
	c2.1,0.5,4.2,0.6,6.4,0.4l6.2-0.3c1.2-0.1,2.4-0.1,3.5-0.3c1.2-0.1,2.4-0.4,3.7-0.6c3-0.4,6-0.6,9.1-0.4c0.8,0.2,1.6-0.1,2.2-0.6
	c0.6-0.7,0.2-1.7,0.1-2.6c-0.4-1.8,0-3.7-0.4-5.5c-0.6-3.2-3.3-5.6-6.4-6.8c-2.8-1.1-7.8-2.3-10.4-0.5
	C357.5,548.6,355.8,551.7,353.3,554z"/>
<path class="st7" d="M341,473.3c-2.6,3.4-5.1,7.3-4.5,11.4c0.3,2.2,1.6,4.2,2.5,6.3c1.2,2.9,2,5.8,2.6,8.9c0.9,4.4,1.9,8.8,2.5,13.3
	c0.7,5.1,0.8,10.2,0.6,15.3c-0.1,1.2-0.2,2.6-1.1,3.4c-0.3,0.3-0.8,0.6-0.9,1.1c-0.1,0.4,0,0.9,0.2,1.3c1.6,3.2,4.3,5.7,7.6,7
	c3.3,1.3,6.8,1.9,10.3,1.9c0.5,0.1,0.9,0,1.4-0.2c0.5-0.3,0.8-0.7,1.1-1.2c2.6-4.9,1.1-10.7,1.2-16.2c0-4.6,1.1-9.1,0.9-13.7
	c-0.2-3.7-1.1-7.3-1.5-10.9c-0.6-6,0.5-12,1.6-18c0.9-4.5,1.7-9.1,2.8-13.6c0.5-2.8,1.5-5.4,2.9-7.9c1.2-1.9,2.8-3.5,4.2-5.2
	c3.8-5,5.5-11.2,4.7-17.4c-0.1-0.6-8.8,2.2-9.6,2.6c-3.1,1.3-6,3.2-8.5,5.5c-2,1.9-3.6,4.5-5.4,6.6c-2.5,3-4.9,6.1-7.4,9.2
	C346.4,466.2,343.7,469.8,341,473.3z"/>
<path class="st11" d="M341,473.3c-2.6,3.4-5.1,7.3-4.5,11.4c0.3,2.2,1.6,4.2,2.5,6.3c1.2,2.9,2,5.8,2.6,8.9
	c0.9,4.4,1.9,8.8,2.5,13.3c0.7,5.1,0.8,10.2,0.6,15.3c-0.1,1.2-0.2,2.6-1.1,3.4c-0.3,0.3-0.8,0.6-0.9,1.1c-0.1,0.4,0,0.9,0.2,1.3
	c1.6,3.2,4.3,5.7,7.6,7c3.3,1.3,6.8,1.9,10.3,1.9c0.5,0.1,0.9,0,1.4-0.2c0.5-0.3,0.8-0.7,1.1-1.2c2.6-4.9,1.1-10.7,1.2-16.2
	c0-4.6,1.1-9.1,0.9-13.7c-0.2-3.7-1.1-7.3-1.5-10.9c-0.6-6,0.5-12,1.6-18c0.9-4.5,1.7-9.1,2.8-13.6c0.5-2.8,1.5-5.4,2.9-7.9
	c1.2-1.9,2.8-3.5,4.2-5.2c3.8-5,5.5-11.2,4.7-17.4c-0.1-0.6-8.8,2.2-9.6,2.6c-3.1,1.3-6,3.2-8.5,5.5c-2,1.9-3.6,4.5-5.4,6.6
	c-2.5,3-4.9,6.1-7.4,9.2C346.4,466.2,343.7,469.8,341,473.3z"/>
<path class="st7" d="M359.5,447.4c0.5,2.6,3.1,4.6,3.2,7.3c0.1,2.1-1.5,3.9-2.6,5.8c-1,1.9-1.9,3.9-2.6,5.9
	c-2.1,5.3-4.6,10.4-7.7,15.3c-1.5,2.3-3.1,4.8-2.8,7.6c0.2,1.3,0.7,2.5,1.3,3.6l4.4,8.7c1,1.7,1.7,3.6,2.2,5.5
	c0.4,1.7,0.4,3.4,0.6,5.1c0.7,5.3,3.2,10.7,1.7,15.9c-0.1,0.4-0.6,1-0.9,0.7c1.5,2.7,2.6,5.4,2.5,8.5c-0.1,1.6-0.5,3.3,0.1,4.8
	c0.3,0.6,0.6,1.2,0.7,1.8c0,0.4-0.2,0.9-0.2,1.3c-0.1,1.2,1,2.3,2.2,2.7c1.2,0.4,2.5,0.4,3.6,0.7c2.3,0.7,3.9,2.6,5.9,4
	c2,1.4,4.3,2.1,6.7,2.2c0.3,0,0.7,0,1-0.2c0.3-0.3,0.6-0.7,0.6-1.2c0.2-2.2-0.7-4.4-2.4-5.8c-0.4-0.2-0.6-0.6-0.9-0.9
	c-0.1-0.3-0.1-0.7-0.1-1.1c0.4-4.8,0.3-9.6-0.3-14.4c-0.2-1.5-0.3-3-0.2-4.6c0.3-1.3,0.4-2.5,0.4-3.8c-0.3-1.3-0.7-2.5-1.2-3.6
	c-0.7-2.2-0.5-4.5-0.6-6.8c-0.3-4-0.9-7.9-1.9-11.7c-0.2-1.5-0.9-3-1.8-4.2c-0.9-1-2.4-1.9-2-3.1c0.2-0.5,0.5-0.9,0.9-1.2
	c0.9-1.1,1.2-2.5,1.1-3.8c0.8,0.2,1.6-0.2,2-0.9c7.3-3.6,12.8-9.9,15.4-17.6c0.2-0.6,0.4-1.1,0.7-1.6c0.7-0.9,1.8-1.3,2.8-1.8
	c3.2-1.6,5.4-4.6,7.4-7.6c1.3-1.6,2.2-3.5,2.9-5.5c0.3-1.3,0.4-2.6,0.4-4l0.2-6.8c0-0.5,0-0.9-0.1-1.3c-0.2-0.4-0.4-0.8-0.7-1.1
	c-2-2.1-4.5-3.4-7.3-3.9c-1.9-0.3-3.8-0.3-5.7-0.4c-3.7-0.3-7.3-1.4-11-1.2c-5.8,0.4-10.9,4.4-13.7,9.5
	C362.6,445.8,361.5,447.3,359.5,447.4z"/>
<path class="st6" d="M167.8,552c1.3,0.4,2.6,0.6,3.9,0.5c0.1-1.1,1.6-1.3,2.6-1.3c0.5,0,1.1,0.1,1.6,0.3c0.3,0.2,0.5,0.4,0.7,0.6
	c0.5,0.3,1,0.4,1.5,0.4l5.7,0.5c2.5,0.2,5.1,0.4,7.5-0.5c0.5-0.1,0.9-0.4,1.2-0.8c0.6-0.9,0-2.2-0.9-2.9c-0.9-0.7-2-1-2.9-1.7
	c-2-1.5-2.2-4.3-3.3-6.5c-0.7-1.4-1.6-2.7-2.7-3.9c-0.8-1-1.7-1.9-2.7-2.7c-2.3-1.6-4.9-1.6-7.5-1.8c-1.9-0.2-3.6-0.3-5,1.4
	c-1.7,2.1-1,6.2-0.9,8.7C166.8,545.5,167.2,548.8,167.8,552z"/>
<path class="st11" d="M167.8,552c1.3,0.4,2.6,0.6,3.9,0.5c0.1-1.1,1.6-1.3,2.6-1.3c0.5,0,1.1,0.1,1.6,0.3c0.3,0.2,0.5,0.4,0.7,0.6
	c0.5,0.3,1,0.4,1.5,0.4l5.7,0.5c2.5,0.2,5.1,0.4,7.5-0.5c0.5-0.1,0.9-0.4,1.2-0.8c0.6-0.9,0-2.2-0.9-2.9c-0.9-0.7-2-1-2.9-1.7
	c-2-1.5-2.2-4.3-3.3-6.5c-0.7-1.4-1.6-2.7-2.7-3.9c-0.8-1-1.7-1.9-2.7-2.7c-2.3-1.6-4.9-1.6-7.5-1.8c-1.9-0.2-3.6-0.3-5,1.4
	c-1.7,2.1-1,6.2-0.9,8.7C166.8,545.5,167.2,548.8,167.8,552z"/>
<path class="st7" d="M170.1,442.1c-1.7,0.6-2.5,2.7-2.2,4.5c0.3,1.8,1.4,3.3,2.3,4.9c2.5,4.5,3.6,9.7,5.7,14.4
	c1.6,3.5,3.7,6.8,5.3,10.3c1.6,3.5,2.6,7.5,1.6,11.2c-0.5,1.8-1.3,3.5-1.9,5.3c-0.6,1.9-1,4-1.1,6c-0.8,6.9-0.9,13.8-0.4,20.6
	c0,0.8,0.2,1.7,0.5,2.4c0.4,0.7,1,1.4,0.7,2.1c-0.1,0.3-0.4,0.5-0.5,0.8c-0.4,0.8,0.4,1.6,1,2.2c-0.2,0.4-0.6,0.7-1.1,0.9
	c1,0.6,1.4,1.8,1.1,2.9c-0.6,0.1-0.6,1-0.2,1.5c0.4,0.5,0.9,0.8,1.2,1.3c0.3,0.9-0.1,1.9-1,2.3c-0.9,0.3-1.8,0.4-2.7,0.2
	c-1.5-0.2-3.1-0.5-4.6-1c-0.5-0.1-1-0.3-1.4-0.6c-0.8-0.7-1.2-1.7-1.3-2.8c-0.3-2.8-0.5-5.7-0.3-8.5c0.2-13.8,0-27.6-0.6-41.4
	c-0.2-5.6-1.9-11-4.1-16.1c-1.2-2.6-2.5-5.2-4-7.7c-3.1-5.7-5.8-12-5.1-18.4c0.1-0.7,0.3-1.5,1-1.6c0.3,0,0.5,0,0.8,0.1
	c1.4,0.7,2.8,1.4,4.1,2.3C165.1,441.2,167.5,441.9,170.1,442.1z"/>
<path class="st11" d="M170.1,442.1c-1.7,0.6-2.5,2.7-2.2,4.5c0.3,1.8,1.4,3.3,2.3,4.9c2.5,4.5,3.6,9.7,5.7,14.4
	c1.6,3.5,3.7,6.8,5.3,10.3c1.6,3.5,2.6,7.5,1.6,11.2c-0.5,1.8-1.3,3.5-1.9,5.3c-0.6,1.9-1,4-1.1,6c-0.8,6.9-0.9,13.8-0.4,20.6
	c0,0.8,0.2,1.7,0.5,2.4c0.4,0.7,1,1.4,0.7,2.1c-0.1,0.3-0.4,0.5-0.5,0.8c-0.4,0.8,0.4,1.6,1,2.2c-0.2,0.4-0.6,0.7-1.1,0.9
	c1,0.6,1.4,1.8,1.1,2.9c-0.6,0.1-0.6,1-0.2,1.5c0.4,0.5,0.9,0.8,1.2,1.3c0.3,0.9-0.1,1.9-1,2.3c-0.9,0.3-1.8,0.4-2.7,0.2
	c-1.5-0.2-3.1-0.5-4.6-1c-0.5-0.1-1-0.3-1.4-0.6c-0.8-0.7-1.2-1.7-1.3-2.8c-0.3-2.8-0.5-5.7-0.3-8.5c0.2-13.8,0-27.6-0.6-41.4
	c-0.2-5.6-1.9-11-4.1-16.1c-1.2-2.6-2.5-5.2-4-7.7c-3.1-5.7-5.8-12-5.1-18.4c0.1-0.7,0.3-1.5,1-1.6c0.3,0,0.5,0,0.8,0.1
	c1.4,0.7,2.8,1.4,4.1,2.3C165.1,441.2,167.5,441.9,170.1,442.1z"/>
<path class="st7" d="M146.7,425.3c-0.9-0.6-1.9-0.9-3-0.9c-1.2,0.2-2.4,0.8-3.3,1.6c-1.1,0.9-2.2,1.8-3.2,2.9
	c-4.3,4.6-5.8,11.2-3.9,17.2c1,3.1,2.9,5.8,4.8,8.4l3.8,5.4c5.7,8.2,11.5,16.5,17.5,24.5c0,0.4,0.3,0.7,0.6,0.9
	c0.2,0.1,0.5,0.1,0.6,0.2c0.1,0.1,0.1,0.2,0.1,0.4c0,0.6-0.1,1.2-0.3,1.7c-0.1,0.2-0.1,0.4-0.1,0.6c0.2,0.5,1,0.2,1.3,0.6
	c0.2,0.3,0,0.6-0.3,0.9c-0.3,0.2-0.5,0.5-0.5,0.9c0,0.4,0.6,0.7,0.6,1.1c0,0.2-0.2,0.4-0.4,0.6c-0.4,0.6-0.3,1.4,0.2,2
	c0.4,3.9-1.7,7.6-2.2,11.6c-0.7,6.2,2.1,12.2,2.5,18.4c0,0.7,0.1,1.4,0.4,2c0.6,1.1,2.1,1.7,2,2.9c-0.1,0.5-0.2,1-0.4,1.5
	c0,0.7,0.1,1.4,0.2,2.1c0,0.7-0.6,1.6-1.3,1.3c0.5,1.6,0.9,3.3,1.3,5l13.2,1.1c0.1-1.2,0.1-2.4-0.1-3.6c-0.3-1.3-0.9-2.5-1.1-3.7
	c-0.4-1.3-0.2-2.6,0.5-3.7c-0.7,0-1.3-0.5-1.5-1.2c-0.1-0.7-0.1-1.4,0-2c0.4-3.4-1.1-6.8-1.1-10.3c0-2.7,1-5.3,1.5-8
	c1-5.7,0-11.9,2.5-17.1c1.5-3.1,3.7-6.6,1.9-9.7c-0.9-1.5-2.3-2.6-3.3-3.9c-0.8-1.3-1.4-2.8-1.8-4.3c-2-6.3-5.3-12.1-8.2-18
	c-0.8-1.5-1.4-3.1-1.8-4.7c-0.2-1.4-0.3-2.9-0.2-4.4c0-2.6-0.2-5.3-0.5-7.9c-0.1-1.1-0.4-2.3-1-3.3c-0.6-0.7-1.3-1.4-2.1-1.9
	C156.5,429.4,151.4,427.7,146.7,425.3z"/>
<path class="st6" d="M162.5,556.8c1.3,0.4,2.6,0.6,3.9,0.5c0.1-1.1,1.6-1.3,2.6-1.3c0.5,0,1,0.1,1.5,0.4c0.3,0.2,0.5,0.4,0.8,0.6
	c0.5,0.3,1,0.4,1.5,0.4l5.6,0.5c2.5,0.2,5.1,0.4,7.5-0.5c0.5-0.1,0.9-0.4,1.2-0.8c0.6-0.9,0-2.2-0.9-2.9c-0.9-0.7-2-1-2.9-1.7
	c-2-1.5-2.2-4.3-3.3-6.5c-0.7-1.4-1.6-2.7-2.7-3.9c-0.8-1-1.7-1.9-2.7-2.7c-2.3-1.6-4.9-1.6-7.5-1.8c-1.9-0.2-3.7-0.3-5,1.4
	c-1.7,2.1-1,6.2-0.9,8.7C161.5,550.3,161.9,553.6,162.5,556.8z"/>
<rect x="233.8" y="457.7" class="st9" width="66.7" height="66.7"/>
<path class="st1" d="M286.9,488.8c0,7.6-3.6,12.4-9.2,12.4c-2.9,0-5.1-1.5-5.5-3.8h-0.4c-1,2.4-3.4,3.9-5.9,3.7c-5,0-8.3-4-8.3-10
	c0-5.7,3.4-9.7,8.3-9.7c2.4-0.1,4.6,1.2,5.6,3.4h0.4v-2.9h4.1v13.3c-0.2,1.3,0.8,2.5,2.1,2.6c0.2,0,0.3,0,0.5,0
	c2.8,0,4.6-3.4,4.6-8.8c0-8.5-6.4-14.3-15.9-14.3c-9.5,0-16,6.8-16,16.5c0,9.9,6.6,16.2,16.9,16.2c1.9,0,3.7-0.2,5.6-0.5
	c0.9-0.1,1.7,0.5,1.9,1.3c0.1,0.8-0.4,1.6-1.2,1.8c-2.1,0.5-4.3,0.7-6.4,0.7c-12.5,0-20.5-7.7-20.5-19.7c0-11.7,8.2-19.7,20-19.7
	C278.9,471.3,286.9,478.5,286.9,488.8z M262,491.2c0,3.8,1.8,6.1,4.7,6.1c3.1,0,5-2.4,5-6.1c0-3.7-1.9-6-4.9-6S262,487.4,262,491.2
	L262,491.2z"/>
<circle class="st8" cx="220.8" cy="389.5" r="13"/>
<path class="st8" d="M208.5,393.3c-1.9,1.6-4.5,1.7-7,2c-5.2,0.5-10.3,2-15.1,4.4c-0.6,0.3-1.2,0.7-1.7,1.2
	c-0.4,0.6-0.7,1.2-0.9,1.9c-0.4,1.5-0.6,3-0.5,4.5c0.2,1.5,0.6,2.9,1.3,4.3c1.8,3.7,4.6,6.9,8.1,9.2c0.6,0.4,1.3,0.8,2,0.9
	c1.7,0.4,3.4-0.6,5.1-1.1c1.5-0.4,3.2-0.3,4.7,0.2c1.4,0.5,2.9,1.3,4.3,0.8c0.9-0.5,1.6-1.3,1.9-2.2c1.3-2.5,2.5-5.1,3.6-7.8
	c0.4-1,0.8-2,1.3-3c1.5-2.9,4.1-5.1,5.4-8.1c0.3-0.5,0.3-1,0.1-1.5c-0.2-0.3-0.6-0.6-1-0.7c-1.9-1.1-3.7-2.5-5.2-4.1
	c-0.9-0.9-2.4-3-3.7-3.2C209.9,390.6,209.5,392.5,208.5,393.3z"/>
<path class="st6" d="M208.8,419.8c-1.5,0.7-3.3,0.4-4.9,0.1c-4.2-0.9-8.5-1.8-12.4-3.6c-1.2-0.5-2.3-1.3-3-2.3
	c-0.5-0.9-0.8-1.9-0.9-2.9l-0.7-4.8c-0.2-1.7,0.2-3.3,0.2-5c0.1-0.4,0-0.8-0.3-1.1c-0.2-0.2-0.5-0.3-0.9-0.3c-2,0-3.1,2.1-4.5,3.5
	c-0.8,0.8-1.7,1.4-2.8,1.9c-1.3,0.5-2.8,0.9-3.3,2.1c-0.2,0.5-0.2,1.1-0.4,1.6c-0.9,2.1-4.6,1.4-5.6,3.4c-0.3,0.6-0.3,1.3-0.7,1.8
	c-0.5,0.5-1.3,0.4-2,0.6c-2.7,0.4-4,3.6-6.4,5.1c-2,1.2-4.5,1.2-6.6,2.2c-1.1,0.7-2.2,1.2-3.4,1.7c-1.3,0.2-2.6,0.3-4,0.2
	c-0.3,0-0.6,0.1-0.8,0.3c-0.2,0.3-0.2,0.6-0.1,0.9c1.3,8.4,6.9,15.4,14.8,18.6c0.4,0.1,0.9,0.3,1.3,0.6c1.2,0.9,1.4,2.8,2.7,3.4
	c1,0.3,2.1,0.1,2.9-0.6c0.7-0.7,1.4-1.5,2.1-2.3c1.2-1.3,2.8-2.1,4.6-2.4c1.6-0.3,3.4-0.1,4.7-1.1c0.5-0.5,1-1,1.5-1.6
	c1-0.9,2.1-1.6,3.4-2c3.4-1.3,7-2.1,10.7-2.3c3.4-0.2,7,0.1,10.2-1c0.8-0.3,1.6-0.7,2.3-1.3c0.7-0.8,1.2-1.7,1.5-2.6
	C209.3,427,209.5,423.3,208.8,419.8z"/>
<path class="st6" d="M192,400.6c1-0.1,1.9,0,2.9,0c1.1,0,2.3-0.3,3.4-0.3c3.7,0.1,6.9,2.5,7.9,6c0.1,0.3,0.1,0.6,0.1,0.9
	c-0.1,0.3-0.4,0.5-0.7,0.4c-0.4-1-0.9-2-1.5-2.9c-1.1-1.5-2.6-2.5-4.4-3c-1.8-0.5-3.6-0.6-5.4-0.2c-0.7,0.1-1.5,0.3-2.2,0.5l-3.5,1
	c-0.6,0.2-1.3,0.4-1.9,0.6c-0.5,0.2-1.3,0.9-1.8,0.9c-0.6,0-0.1-0.6,0.2-0.9c0.6-0.8,1.4-1.4,2.3-1.6
	C188.9,401.3,190.5,400.8,192,400.6z"/>
<path class="st8" d="M200.8,439.7c0.9,2.7,1.7,5.4,2.7,8c1.9,4.6,4.3,8.9,7.1,13c1.8,2.7,3.8,5.2,5.9,7.7c2.6,3.1,5.5,6.2,6.5,10.1
	c0.5,2.3,0.4,4.7,0.6,7c0.2,2.3,1,4.8,2.9,6.2c1.4,0.9,3,1.4,4.7,1.6c1.2,0.2,2.7,0.2,3.3-0.8c0.2-0.4,0.3-0.9,0.3-1.3l0.3-3.4
	c0.1-0.7,0.3-1.7,1.1-1.7c0.7,0,1.1,0.9,1.7,1.4c0.9,0.5,2,0.1,2.5-0.8c0,0,0-0.1,0.1-0.1c0.4-1,0.4-2,0.1-3c-1-3.9-3.7-7.2-7.3-9
	c-1.2-0.5-2.4-1.1-3.6-1.9c-1.1-1-2.1-2.2-2.8-3.5c-6.5-10.6-13-21.4-17.5-32.9c-0.9-2.1-1.5-4.3-1.8-6.5c-0.1-2.3,0-4.6,0.3-6.8
	c0.3-4.1-0.1-8.2-1.1-12.2c-0.2-1-0.6-2-1.2-3c-1.9-2.9-6.3-3.3-9.1-1.3c-2.1,1.6-3.4,4-3.6,6.6c-0.2,2.3,1.1,4.7,1.8,6.8
	C196.7,426.5,198.7,433.1,200.8,439.7z"/>
<path class="st7" d="M239.8,380.3c0.1-1.1-0.9-2.1-2-2.8c-1.2-0.6-2.3-1.3-3.3-2.1c-1-0.9-1.5-2-2.5-2.8c-1.1-0.9-2.4-1.5-3.8-1.9
	c-2.9-1-5.9-1.6-9-1.6c-3-0.1-6,0.7-8.6,2.3c-0.6,0.4-1.1,0.8-1.5,1.4c-0.4,0.7-0.6,1.4-0.7,2.2c-0.6,2.3-1.3,4.6-2.2,6.8
	c-1,2.5-2,5-4.3,6.9c-2.4,2-6.2,3.2-7.8,5.7c-0.4,0.4-0.5,1-0.4,1.6c0.2,0.6,1,1,1.6,1.4c4,2.3,7.4,5.2,9.1,8.7
	c1.9,3.5,1.6,7.7-0.8,10.9c-0.9,1.2-2.2,2.6-1.3,3.8c1.4,1.8,6,0.8,7.1,2.7c0.2,0.6,0.3,1.3,0.1,2c0,2,2,3.8,4.3,4.8
	c2.5,0.9,5.1,1.3,7.8,1.3c0.7-1.6,0.8-3.4,0.2-5c-0.2-0.4-0.2-0.8-0.2-1.1c0.2-0.4,0.5-0.8,0.9-1.1c2.9-2.7,2.3-6.7,0.5-9.9
	c-1.7-3.2-4.4-6.1-5.4-9.5c-0.5-1.7-0.5-3.6,0.9-5c0.8-0.7,1.6-1.3,2.5-1.8c1.5-1.1,2.7-2.5,3.4-4.3c0.8-2.2,0.7-4.9,3-6.4
	c2.3-1.5,5.4-1,7.8-1.9C237.4,384.7,239.6,381.8,239.8,380.3z"/>
<circle class="st10" cx="312.8" cy="384.9" r="14.2"/>
<path class="st10" d="M325.6,384.3c2.6,4.2,6.9,7.2,11.8,8.2l-1.1,3.9c-1.8,6.7-3.9,13.8-9.1,18.4c0.5-2.3-0.1-4.7-1.4-6.6
	c-1.4-1.9-3-3.6-4.8-5l-8.2-7.1c-0.3-0.2-0.5-0.4-0.6-0.7c-0.2-0.5-0.2-1.1,0-1.6c1-3.2,4-5.3,6.4-7.5c1.2-1.1,2.3-2.4,3.2-3.8
	C323.5,380.2,324.6,382.5,325.6,384.3z"/>
<path class="st12" d="M327.4,402.6c0.1,1.1-0.1,2.1-0.4,3.1c-0.4,1-1.5,1.6-2.6,1.3c0.3-0.7-0.5-1.4-1.2-1.4
	c-0.7,0.2-1.3,0.7-1.6,1.4c-0.5,1-0.7,2.1-0.5,3.2c0.2,1.3,1,2.6,0.8,4c-0.2,1.1-1,2.2-0.5,3.3c0.3,0.5,0.6,0.9,1.1,1.3
	c1.2,1.5,1,3.6-0.4,4.9l11.1,0.2c-0.4,1.9,0.4,3.8,1.4,5.4c5.4,9.2,14.7,15.3,25.3,16.5c-1,0.6-1.4,2-0.8,3c0.1,0.1,0.2,0.2,0.3,0.3
	c0.9,0.9,2.4,0.8,3.6,0.2c1.1-0.7,2.1-1.4,3.1-2.3c1.8-1.3,4-1.9,6.3-1.7c1.4,0.1,2.7,0.6,4.1,0.6c4.1,0.2,7.6-2.7,11.6-3.9
	c2.9-0.9,6.1-0.9,8.5-2.7c1-0.8,1.9-2,1.6-3.3c-0.3-0.7-0.7-1.4-1.2-1.9c-1.4-1.8-2.2-4-3.2-6c-2-4-4.7-7.7-8-10.7
	c-2.5-2.2-5.1-4.2-7.9-6c-0.7-0.5-1.4-0.9-2.2-1.3c-1-0.3-2-0.7-2.9-1.2c-1.3-0.9-2.1-2.3-3.1-3.4c-2.2-2.6-5.6-3.7-8.3-5.7
	c-1.8-1.3-3.4-3.1-5.6-3.8c-1.1-0.3-2.2-0.3-3.2-0.7c-2.4-0.7-4.1-2.9-6.5-3.7c-1.9-0.7-3.9-0.5-5.9-0.8c-2.2-0.3-4.2-1.1-6-2.3
	c-0.6-0.5-1.2-0.9-1.9-1.1c-3-0.9-3.2,4.6-3.5,6.5C328.1,396.9,327.4,399.8,327.4,402.6z"/>
<path class="st10" d="M330.3,421.2c0.5,5.4-3.6,10.6-2.4,15.9c0.3,1.1,0.7,2.2,0.9,3.3c0.5,3.1-1.4,6.1-3.2,8.7l-15.4,22.5
	c-0.6,1-1.3,1.9-2.2,2.7c-2.9,2.6-7.3,2.3-11.2,3.1c-2.7,0.6-5.3,1.7-7.5,3.3c-0.2,0.2-0.2,0.5-0.1,0.7c1.3,1.8,3.4,2.7,5.6,2.6
	c0.4,0.5,0,1.3-0.6,1.7c-0.9,0.6-2,0.7-2.1,2.1c-0.1,0.5,0,1,0.3,1.4c0.6,0.9,1.6,1.6,2.7,1.9c5.3,1.6,11-1.2,15-5.1
	c4-3.9,6.8-8.8,10.7-12.7c2.2-2.2,4.6-4.1,6.8-6.2c4.4-4.3,7.9-9.4,11.2-14.5c1.1-1.5,1.9-3.2,2.4-4.9c0.4-1.8,0.2-3.6,0.7-5.3
	c0.6-2.3,2.3-4.1,3.7-6c2.7-3.8,4.5-8.3,4.2-13s-3.2-9.2-7.6-10.7c-1.4-0.5-2.9-0.6-4.3-0.3c-1.8,0.5-3.1,2-4.3,3.4l-2.9,3.4
	c-0.7,0.7-1.3,1.6-1.7,2.6c-0.4,1-0.1,2.1,0.6,2.9"/>
<path class="st12" d="M338.1,399c-2,0.1-4.3,0.3-5.7,1.7c-0.6,0.7-1.1,1.4-1.4,2.2c-1.4,2.8-2.7,5.8-2.8,8.9c-0.1,2.5,0.6,5,1,7.4
	c0.3,2.1-0.5,4.2-0.6,6.2c2.8-0.8,5.5-1.8,8.1-3.1c1.5-1,3.1-1.8,4.7-2.5c2.4-0.8,6.5,0.6,8.7,1.7c0.1-1.6-1.1-4.4-0.9-6
	c0-0.7,0.1-1.3,0.4-2c0.3-0.7,0.7-1.3,1.2-1.9c1.8-2.9,1.5-6.6-0.7-9.2c-2-2.3-5.2-3.1-8.2-3.5c-1.9-0.2-3.8-0.3-5.8-0.2"/>
<path class="st7" d="M294.1,370.6l-0.3-2.7c2.2,0.6,4.4-1.3,5.8-3.3c1.4-2,2.8-4.3,4.9-5.1c2.7-1,5.5,0.6,8,1.9c2.8,1.6,6,2.6,9.2,3
	c0.5,0,1,0.1,1.5,0.2c1.6,0.6,2.4,2.7,2.7,4.5c0.2,1.9,0.2,3.9,1,5.6c0.6,1.3,1.7,2.2,2.3,3.4c1.7,3.4,0.1,8,1.9,11.3l-4.6-4.2
	c-0.4-0.4-1-0.8-1.5-0.5c-0.5,0.3-0.4,0.9-0.5,1.3c-0.5,1.2-1.9,1.8-3.1,1.2c0,0-0.1,0-0.1,0c-1.2-0.7-2.1-1.6-2.9-2.6
	c-1.9-2.4-4.4-4.3-7.2-5.5c-2.5-1-5.3-0.8-7.6,0.5c-2.1,1.2-3.7,4-6.3,4.1c-3.6,0.1-5.1-6.5-6.7-9.1c1.2-0.9,1.6-2.6,0.9-4
	C291.7,370.4,294,370.2,294.1,370.6z"/>
<g>
	<g class="st13">
		<path class="st14" d="M673.3,147.5h3.3c1,0,1.8,0.8,1.8,1.8v52.8c0,1-0.8,1.8-1.8,1.8h-3.3c-1,0-1.8-0.8-1.8-1.8v-52.8
			C671.6,148.3,672.3,147.5,673.3,147.5z"/>
		<path class="st14" d="M446.1,103.3h0.3c1,0,1.8,0.8,1.8,1.8v15c0,1-0.8,1.8-1.8,1.8h-0.3c-1,0-1.8-0.8-1.8-1.8v-15
			C444.3,104.1,445.1,103.3,446.1,103.3z"/>
		<path class="st14" d="M446,137.3h0.8c1,0,1.8,0.8,1.8,1.8v28.8c0,1-0.8,1.8-1.8,1.8H446c-1,0-1.8-0.8-1.8-1.8v-28.8
			C444.2,138.1,445,137.3,446,137.3z"/>
		<path class="st14" d="M446,180.9h0.6c1,0,1.8,0.8,1.8,1.8v29c0,1-0.8,1.8-1.8,1.8H446c-1,0-1.8-0.8-1.8-1.8v-29
			C444.3,181.7,445.1,180.9,446,180.9z"/>
		<path class="st14" d="M476.6,42h168.5c16.6,0,30.1,13.5,30.1,30.1v404.7c0,16.6-13.5,30.1-30.1,30.1H476.6
			c-16.6,0-30.1-13.5-30.1-30.1V72.1C446.5,55.5,460,42,476.6,42z"/>
		<path class="st15" d="M541.8,55.9h26c1.6,0,3,1.3,3,3v0.5c0,1.6-1.3,3-3,3h-26c-1.6,0-3-1.3-3-3v-0.5
			C538.8,57.2,540.2,55.9,541.8,55.9z"/>
		<circle class="st15" cx="579.3" cy="59.2" r="3.7"/>
	</g>
	<ellipse class="st0" cx="651.8" cy="570.1" rx="72.3" ry="7.4"/>
	<path class="st1" d="M642.9,54.1h-26.2v3.2c0,8.3-6.7,15-15,15l0,0h-83.5c-8.3,0-15-6.7-15-15c0,0,0,0,0,0v-3.2h-24.6
		c-10,0-18.2,8.1-18.2,18.2c0,0,0,0,0,0v404.3c0,10,8.1,18.2,18.1,18.2c0,0,0,0,0,0h164.1c10,0,18.2-8.1,18.2-18.2V72.3
		C661.1,62.3,653,54.1,642.9,54.1z"/>
	<path class="st1" d="M754.4,21.6c0,0-65-3.9-57.3,41.6c0,0-1.5,8,5.8,11.7c0,0,0.1-3.4,6.7-2.2c2.3,0.4,4.7,0.5,7.1,0.3
		c3.2-0.2,6.2-1.5,8.6-3.6l0,0c0,0,18.3-7.5,25.4-37.4c0,0,5.3-6.5,5-8.2l-11,4.7c0,0,3.7,7.9,0.8,14.5c0,0-0.4-14.2-2.5-13.9
		c-0.4,0.1-5.7,2.7-5.7,2.7s6.5,13.8,1.5,23.8c0,0,1.8-17-3.6-22.8l-7.7,4.5c0,0,7.5,14.2,2.4,25.8c0,0,1.3-17.8-4.1-24.7l-7,5.5
		c0,0,7.1,14,2.8,23.7c0,0-0.6-20.7-4.3-22.3c0,0-6.1,5.4-7.1,7.6c0,0,4.8,10.2,1.8,15.6c0,0-1.8-13.8-3.4-13.9
		c0,0-6.1,9.2-6.7,15.4c0,0,0.3-9.3,5.2-16.3c0,0-5.9,1-9.3,4.8c0,0,0.9-6.5,10.8-7c0,0,5-6.9,6.4-7.4c0,0-9.8-0.8-15.8,1.8
		c0,0,5.2-6.1,17.6-3.3l6.9-5.6c0,0-12.9-1.8-18.4,0.2c0,0,6.3-5.4,20.3-1.5l7.5-4.5c0,0-11-2.4-17.6-1.5c0,0,6.9-3.7,19.8,0.3
		l5.4-2.4c0,0-8.1-1.6-10.5-1.8c-2.4-0.3-2.5-0.9-2.5-0.9c5.2-0.9,10.5-0.3,15.3,1.7C743.2,26.6,754.6,22.4,754.4,21.6z"/>
	<path class="st1" d="M687.8,1.4c0,0-29.3-1.8-25.9,18.8c0,0-0.7,3.6,2.6,5.3c0,0,0.1-1.5,3-1c1.1,0.2,2.1,0.2,3.2,0.2
		c1.4-0.1,2.8-0.7,3.9-1.6l0,0c0,0,8.2-3.4,11.5-16.9c0,0,2.4-2.9,2.3-3.7l-5,2.1c0,0,1.7,3.6,0.4,6.5c0,0-0.2-6.4-1.1-6.3
		c-0.2,0-2.6,1.2-2.6,1.2s2.9,6.2,0.7,10.7c0,0,0.8-7.7-1.6-10.3l-3.5,2c0,0,3.4,6.4,1.1,11.7c0,0,0.6-8-1.8-11.2l-3.2,2.5
		c0,0,3.2,6.3,1.3,10.7c0,0-0.3-9.4-1.9-10.1c0,0-2.8,2.4-3.2,3.4c0,0,2.2,4.6,0.8,7c0,0-0.8-6.2-1.5-6.3c0,0-2.8,4.1-3,6.9
		c0.1-2.6,1-5.2,2.4-7.4c-1.6,0.3-3.1,1.1-4.2,2.2c0,0,0.4-2.9,4.9-3.2c0,0,2.3-3.1,2.9-3.3c0,0-4.4-0.4-7.1,0.8c0,0,2.4-2.8,8-1.5
		l3.1-2.5c0,0-5.8-0.8-8.3,0.1c0,0,2.9-2.4,9.2-0.7l3.4-2c0,0-5-1.1-8-0.7c0,0,3.1-1.7,9,0.1l2.4-1.1c0,0-3.6-0.7-4.7-0.8
		c-1.1-0.1-1.1-0.4-1.1-0.4c2.3-0.4,4.7-0.1,6.9,0.8C682.7,3.6,687.9,1.7,687.8,1.4z"/>
	<rect x="576" y="332" class="st16" width="60.2" height="60.2"/>
	<rect x="487.3" y="252.5" class="st16" width="60.2" height="60.2"/>
	<rect x="493.1" y="410.1" class="st16" width="60.2" height="60.2"/>
	<rect x="479.6" y="104.6" class="st9" width="60.2" height="60.2"/>
	<path class="st1" d="M521.4,124.3l-2.1,2.1c2.9,2.9,3,7.7,0,10.7c0,0,0,0,0,0l2.1,2.1C525.6,135.1,525.6,128.4,521.4,124.3z"/>
	<path class="st1" d="M525.7,120.2l-2.1,2.1c5.2,5.2,5.2,13.7,0,19l2.1,2.1C532.1,137,532.1,126.6,525.7,120.2L525.7,120.2z
		 M515.7,128.1v-9.6h-3l-8.9,7.4H492l-3,1.5v10.4l3,1.5l7.4,11.9h4.4l-2.8-11.9h2.8l8.9,5.9h3v-9.6c2-0.5,3.3-2.5,2.9-4.5
		C518.2,129.5,517.1,128.4,515.7,128.1L515.7,128.1z"/>
	
		<rect x="591.9" y="322.7" transform="matrix(0.7415 -0.6709 0.6709 0.7415 -75.903 508.5481)" class="st9" width="60.2" height="60.2"/>
	<path class="st1" d="M604.6,344.5l4.4-4l23.9,26.4l-4.4,4L604.6,344.5z M614.9,369.2l4.4-4l6.9,7.7l-4.4,4L614.9,369.2z
		 M624.1,352.9l4.4-4l10.9,12.1l-4.4,4L624.1,352.9z M624.8,340.3l4.4-4l16.9,18.7l-4.4,4L624.8,340.3z"/>
	<rect x="575" y="177.2" class="st9" width="60.2" height="60.2"/>
	<path class="st1" d="M616.6,200.1l-8.1,12.3c0.7,0.8,1,1.8,1,2.8c-0.1,2.5-2.2,4.4-4.6,4.3c-2.3-0.1-4.2-1.9-4.3-4.3
		c0-0.3,0-0.6,0.1-0.8l-5.3-3.1c-1.4,1.4-3.6,1.6-5.3,0.7l-5.7,5.3v5.3c0,2.2,1.8,4,4,4h33.6c2.2,0,4-1.8,4-4v-19.7l-5.4-3.6
		c-0.8,0.6-1.7,0.9-2.7,0.9C617.4,200.3,617,200.2,616.6,200.1L616.6,200.1z"/>
	<path class="st1" d="M592.3,203.7c2.5,0,4.4,2,4.5,4.4c0,0,0,0,0,0c0,0.2,0,0.4,0,0.6l5.6,3.1c0.8-0.7,1.8-1,2.8-1
		c0.3,0,0.6,0,1,0.1l8.1-12.5c-1.4-2-0.9-4.8,1.1-6.2c2-1.4,4.8-0.9,6.2,1.1c0.5,0.7,0.8,1.6,0.8,2.6c0,0.4,0,0.7-0.1,1l3.9,2.6V192
		c0-2.2-1.8-3.9-4-4h-33.6c-2.2,0-4,1.8-4,4v21.3l3.7-3.5c-0.2-0.5-0.3-1-0.3-1.5C587.8,205.7,589.8,203.7,592.3,203.7z"/>
	<rect x="498.9" y="244.3" class="st9" width="60.2" height="60.2"/>
	<path class="st1" d="M547.2,255.3l-37,20.1c-0.4,0.2-0.5,0.7-0.3,1c0.1,0.1,0.2,0.3,0.4,0.3l6.3,2.4c0.4,0.1,0.7,0.4,0.8,0.8
		l4.9,10.1c0.1,0.4,0.9,0.6,0.9,0.1l-0.8-8.4c0-0.6,0.3-1.2,0.7-1.7l19.2-18.8c0.1-0.1,0.3-0.2,0.4-0.1c0.2,0.1,0.4,0.3,0.3,0.5
		c0,0.1,0,0.1-0.1,0.2L526.4,282c-0.3,0.5-0.6,1.1-0.6,1.7l-1,7.2c0.1,0.6,0.6,0.9,1,0.3l3.6-4.2c0.2-0.3,0.7-0.4,1-0.2l9.2,6.7
		c0.4,0.2,0.8,0.1,1.1-0.2c0-0.1,0.1-0.1,0.1-0.2l7.5-37c0.1-0.4-0.2-0.8-0.6-0.9C547.5,255.2,547.3,255.2,547.2,255.3L547.2,255.3z
		"/>
	
		<linearGradient id="SVGID_1_" gradientUnits="userSpaceOnUse" x1="676.4648" y1="-40.5886" x2="676.4648" y2="191.2906" gradientTransform="matrix(1 0 0 -1 -51.77 532.01)">
		<stop  offset="0" style="stop-color:#808080;stop-opacity:0.25"/>
		<stop  offset="0.54" style="stop-color:#808080;stop-opacity:0.12"/>
		<stop  offset="1" style="stop-color:#808080;stop-opacity:0.1"/>
	</linearGradient>
	<path class="st17" d="M679.4,567.8c-0.6-2.6-1-5-1-5c0.1-1.8-0.3-3.5-1.1-5v-0.7l0,0v-5.3c0.4-1,0.8-1.9,1.3-2.8c1-1.7,0-7.8,0-7.8
		s-3.5-8.6-2.7-14.1c0.9-5.5-7.3-24.3-7.3-24.3c0.1-1.8,0.3-3.6,0.8-5.4c0.1-0.4,0.1-0.7,0.1-1.1c0,0,0-0.1,0-0.1v0
		c-0.1-3.6-3-10.4-3-10.4l0.4-12.9c0,0,1.8-7.6-1.1-17.8c-1-3.6-1.7-6.4-2.1-8.6c0-0.2-0.1-0.5-0.1-0.7c6.1-0.9,10.8-1.7,10.8-1.7
		s-3.5-14.9-5.9-17.5c-2.4-2.6-4.3-10.8-4.3-10.8s-1.3-10.5,0.8-13.6s2.3-8.4,2.3-8.4s4.6-3.3,5.2-4.8c0.8-2.1,1.3-4.3,1.5-6.6
		c0-1.8-0.6-3.3-0.4-4.3c0.2-0.9-1.3-4.5-0.6-6.1c0.2-0.5,0.3-1.1,0.3-1.6c0,0,0,0,0,0l0,0c0-1.5-0.1-2.9-0.4-4.4
		c-1.3-1.1-2.9-2-4.6-2.4l-0.1-0.4l-0.3-1c-0.1-0.1-0.3-0.2-0.5-0.3v-0.4v-1.5l0.7-3.4c1.4-5.9-6.5-6.8-6.5-6.8
		c-0.5-0.9-1.3-1.6-2.2-2c-1.5-0.6-0.3,8.9,0.5,9.5c0.6,0.4,2.3,3.4,3.1,4.9l0,0l0.1,0.2c-0.1,0.1-0.3,0.2-0.4,0.4l0.3,2l0,0.3
		c-0.5,0.6-0.9,1.4-1.3,2.1c0,0,1.4,1.6,1.1,3.3c-0.1,1.4,0.1,2.8,0.5,4.1c-0.1-0.1-1.1-1.2-2.1-0.9c-1,0.3-3.9,1.1-3.9,1.1
		s-2.1,0.4-1.9,0.8c0.2,0.5-1.4,2.5-1.4,2.5l-5.7-5.4c-0.1-0.2-0.1-0.3-0.2-0.5c-0.2-0.8-0.4-1.5-0.5-2.3c0.6-0.1,1.2-0.3,1.8-0.6
		c0.6-0.2,1.1-0.6,1.5-1c0.5-0.7,0.8-1.6,0.9-2.4c0.4-1.7,1.4-3.1,2.1-4.7c1.1-2.6,1.5-5.5,1.1-8.4c-0.1-0.9-0.4-1.7-0.9-2.5
		c-0.9-1.3-2.6-1.8-3.9-2.8s-2-2.6-3.4-3.3c-1.4-0.6-2.9-0.7-4.3-0.4c-2.8,0.5-5.6,1.5-8,2.9c-0.8,0.5-1.7,1.1-2.7,0.9
		c-0.8-0.2-1.5-0.7-1.9-1.4c0,0,0-0.1,0-0.1l-0.1-0.1c-0.6,1.3-0.9,2.8-0.9,4.2c0,0.2,0,0.4,0,0.7c0,0.1,0,0.2,0,0.2
		c0,0.1,0,0.1,0,0.2l0,0c0,0.1,0,0.2,0,0.3c-0.1,0.3-0.3,0.6-0.5,0.8c-0.2,0.2-0.3,0.4-0.5,0.6c0-0.1,0-0.2,0.1-0.2
		c-0.4,0.5-0.6,1.1-0.6,1.8c0,0.5,0.1,0.9,0.4,1.3c0.3,0.3,0.6,0.5,0.9,0.8c-0.1,0.6-0.2,1.3-0.2,1.9c0,3.8,2,7.4,5.3,9.4l0.2,0.5
		c0.8,1.9,1.2,4.1,1,6.2c0,0.2,0,0.3-0.1,0.5l-0.2,0.2l0,0c0,0-9.4,0.1-11.6-1.9s-5.6,4.9-5.6,4.9s-3.4,0.7-4,0
		c-0.7-0.7-4.6-0.1-4.6-0.1c-1.6-1.4-3.7-2.2-5.8-2.1c-1.3-1-2.8-1.8-4.3-2.4l0,0l-0.1,0l0,0c-0.7-0.2-1.4-0.3-2.1-0.3
		c0,0-4.6-3.8-5.9-5.8s-7.7-9.6-7.8-9.7v-0.4l-0.1-1.1c-0.2,0-0.4,0-0.6,0.1c0-0.1-0.1-0.2-0.1-0.4c-0.4-1.1-0.8-2.1-1.4-3.1
		c0,0,0-1.4,0.4-1.7s-0.2-5.5-0.2-5.5s-4.2-9.7-7.9-2.5c0,0-7,4.7-1.1,10.1c0,0,2.3,1.1,2.7,2c0.2,0.6,1,2.2,1.5,3.3l0.2,0.5
		l-0.1,0.1l0.1,0.9v0.4c-1.1,0.6-1.9,1.3-1.7,1.7c0.3,0.8,0.6,1.6,0.7,2.5c0,0,8.2,10.2,9.2,14.6c0,0,21.9,13,29.1,13.9l-1.2,6.5
		c-0.2,1.8-0.3,3.5-0.3,5.3c0.1,1.4-0.9,7.7-0.9,7.7s-1.3,9.3-2.3,10.6c-1.1,1.3-0.9,6.9-0.9,6.9c-0.2,2.7-0.7,5.3-1.4,7.9
		c-1.1,3.5-0.3,7.9-0.3,7.9s-3.6,8.4,5.1,2.7c0,0,4.3-0.3,9.3-0.4c0,0.2,0,0.3,0,0.5c0,0.6,0,1.3,0,2c-0.1,4.8-0.1,11.4,0.1,16.4
		c0.4,8.8,3.1,26.2,3.1,26.2v8.8c-0.2,0.8-0.3,1.7-0.2,2.5c-0.1,3.1,0.8,6.1,2.4,8.8l0.7,5.8c0,0,1.5,3.9,1.6,6.2
		c0,0.2,0,0.4-0.1,0.6c-0.1,0.3-0.1,0.6-0.1,0.9c-0.1,2.7,1.5,9,1.5,9s0.1,6.4,1.1,6.8c0.8,0.3-1.1,3.7-1.7,4.6c0-0.1,0-0.1,0-0.2
		c-0.1,0.1-0.1,0.2-0.1,0.2c-0.2,0.5-0.3,1.1-0.3,1.6c-0.1,0.9,0.3,1.8,1.1,2.3c1.8,1.1,2.8,2,1.3,2.4c-0.6,0.1-1.1,0.2-1.7,0.4
		c0-0.1-0.1-0.1-0.1-0.2c-0.4,0.2-0.7,0.6-0.6,1.1c0,0.8,0.2,1.5,0.6,2.2c0.7,1.7,1.5,3.3,2.6,4.7l0.8-0.1c-0.1,0.3-0.3,0.5-0.4,0.8
		c-0.3,0.4-0.6,0.7-1.1,1c-0.4,0.2-0.8,0.4-1.3,0.5c-1.1,0-2,0.5-2.7,1.3c-1,1.2-1.5,2.9,0.3,4.4l6.9,2.4c0,0,11.8,1.5,11.2-1.1
		c-0.6-2.7-1-5-1-5c0-1.6-0.3-3.2-1-4.7c-0.1-0.2-0.3-0.5-0.4-0.7l0.4,0c0,0,0.9-5.8,2-6.9c0.3-0.3,0.3-0.5,0.3-0.6
		c0.1-0.3-0.2-0.5-0.6-0.6l-0.1,0.2c-0.4-0.1-0.8-0.1-1.1-0.1c0,0-0.4-3.1,0.9-4.2c0.2-0.3,0.3-0.6,0.2-0.9c0-0.4,0-0.8-0.1-1.3
		l0,0.1c-0.7-2.5-1.6-4.9-2.8-7.2c0,0-0.1-2.8,0.7-3.9c0.8-1.1-0.1-15.1-0.1-15.1s0.3-6.8-0.6-9.9c-0.9-3.2,1.1-6.9,1.1-6.9v-0.2v0
		c0,0,0-0.4-0.1-1.1v0.1c-0.2-1.8-0.6-5-0.8-6.5c-0.4-2.1,0.1-12.3,0.1-12.3l1.7-4.4l3.1,7.5l3.3,10c0.9,1.2,1.5,2.7,1.7,4.3
		c0,0.1,0,0.2,0,0.3c0,0.2,0,0.4,0,0.7c-0.1,1.3,0.3,2.5,1,3.6c0,0,0.9,4.7,2.2,5.9c1.3,1.2,1.3,3.5,1.3,3.5s1.6,6.9,2.4,8.1
		c0.6,1,0.7,3.8,0.7,4.6l0,0v0.3c0,0,0.2,2.5,0.2,4.5c0,0.2,0,0.5,0,0.8v-0.1c0,0.6-0.1,1.1-0.2,1.7v0.1c0-0.1,0-0.2,0-0.3
		c-0.3,1.4-0.5,2.8-0.5,4.3c0,2.5,0.3,5.4,1.8,7.1c2.6,3,4.2,2.6,4.2,2.6s-1.3,3.7-2.8,4.5c-0.1,0-0.1,0.1-0.2,0.1
		c0-0.1,0-0.1,0-0.2c-0.3,0.4-0.5,0.9-0.4,1.4c0.1,2,0.7,3.9,1.9,5.5c0.4,0.4,0.8,0.6,1.3,0.8l-0.2,0.1c-0.2,0.1-0.4,0.2-0.5,0.3
		c-0.2,0.1-0.5,0.2-0.8,0.2c-1.1,0-2,0.5-2.7,1.3c-1,1.2-1.5,2.9,0.3,4.4l6.9,2.4C668.3,568.9,680,570.5,679.4,567.8z"/>
	<path class="st18" d="M634.3,572.2l-6.6-2.4c-1.8-1.5-1.2-3.2-0.3-4.4c0.6-0.8,1.6-1.3,2.6-1.3c0.5-0.1,0.9-0.2,1.3-0.5
		c0.4-0.2,0.8-0.6,1-1c0.5-0.8,0.8-1.7,0.8-2.6c0,0,7.3-2.1,9.3,0c0.4,0.4,0.7,0.8,0.9,1.3c0.7,1.5,1,3.1,0.9,4.7c0,0,0.4,2.3,1,5
		C645.7,573.7,634.3,572.2,634.3,572.2z"/>
	<path class="st18" d="M666.8,569l-6.6-2.4c-1.8-1.5-1.3-3.2-0.3-4.4c0.6-0.8,1.6-1.3,2.6-1.3c0.3,0,0.5-0.1,0.8-0.2
		c0.2-0.1,0.3-0.2,0.5-0.3c1.9-1,1.8-3.5,1.8-3.5s7.3-2.1,9.3,0c0.3,0.3,0.5,0.6,0.7,0.9c0.8,1.6,1.2,3.3,1.1,5c0,0,0.4,2.3,1,5
		C678.2,570.5,666.8,569,666.8,569z"/>
	<path class="st2" d="M642.3,560.1c0.4,0.4,0.7,0.8,0.9,1.3l0,0l-10.9,1.3c0.5-0.8,0.8-1.7,0.8-2.6
		C633.1,560.1,640.3,558,642.3,560.1z"/>
	<path class="st2" d="M675.5,557.8v2c-1.7,2.8-9.9,2.2-12.3,0.8c0.2-0.1,0.3-0.2,0.5-0.3c1.9-1,1.8-3.5,1.8-3.5s7.3-2.1,9.3,0
		C675.1,557.1,675.3,557.5,675.5,557.8z"/>
	<path class="st7" d="M676.8,549c-0.5,0.9-0.9,1.8-1.3,2.8v7.3c-1.9,3.1-11.5,2-12.8,0.4c-1.3-1.7-2.7-6-1.2-6.8
		c1.5-0.7,2.7-4.5,2.7-4.5s-1.5,0.4-4.1-2.6c-2.5-3-1.8-9.6-1.3-11.1c0.5-1.6,0-6.9,0-6.9s0.1-3.7-0.6-4.9c-0.7-1.2-2.3-8.1-2.3-8.1
		s0-2.3-1.3-3.5s-2.1-5.9-2.1-5.9c-0.8-1.2-1.1-2.6-0.9-4c0.3-2.3-1.6-4.8-1.6-4.8l-3.2-10l-3-7.5l-1.7,4.4c0,0-0.5,10.2-0.1,12.3
		s0.9,7.8,0.9,7.8s-1.9,3.7-1,6.9c0.8,3.2,0.6,9.9,0.6,9.9s0.8,14,0.1,15.1c-0.7,1.1-0.6,3.9-0.6,3.9s3.8,8.2,2.6,9.3
		c-1.2,1.1-0.8,4.2-0.8,4.2s2.6,0,1.5,1.1c-1.1,1.1-2,6.9-2,6.9L632,562c-1-1.5-1.9-3.1-2.5-4.7c-1.5-3.4,0.3-3.1,1.8-3.4
		c1.5-0.3,0.5-1.3-1.2-2.4c-1.8-1.1-0.8-3.6-0.8-3.6s2.7-4.6,1.8-4.9c-0.9-0.4-1-6.8-1-6.8s-1.9-7.6-1.4-9.7c0.5-2-1.5-6.9-1.5-6.9
		l-0.6-5.8c-2-3.3-2.7-7.3-2-11.1v-9c0,0-2.6-17.5-3-26.2c-0.2-5.6-0.2-13.4-0.1-18.2c0-2.7,0.1-4.5,0.1-4.5l40.1-4.2
		c0.1,2,0.3,4,0.7,6c0.4,2.2,1,5.1,2.1,8.6c2.9,10.2,1.1,17.8,1.1,17.8l-0.4,12.9c0,0,3.5,8.6,2.8,11.6c-0.5,1.8-0.7,3.6-0.8,5.4
		c0,0,7.9,18.9,7.1,24.3s2.6,14.1,2.6,14.1S677.8,547.3,676.8,549z"/>
	<path class="st11" d="M653.9,500.6l12.2-1.6C666.1,499,659.2,506,653.9,500.6z"/>
	<path class="st2" d="M664.3,487.1c0,0,0.4,4.3-2.2,5.9C662.1,493,666.8,492.3,664.3,487.1z"/>
	<path class="st2" d="M663.6,473.3c0,0-10.2,8.4-13.9,7.7C646,480.3,663.6,473.3,663.6,473.3z"/>
	<path class="st2" d="M638.8,504.6c0,0-7.7,1.8-8,4.9S638.8,504.6,638.8,504.6z"/>
	<path class="st11" d="M640.5,543.3c0,0-10.9,2-7.8,3.4c2.7,1.1,5.4,1.9,8.2,2.5C640.8,549.2,644.4,549.4,640.5,543.3z"/>
	<g class="st19">
		<path d="M630.4,548.9c-0.6-0.3-0.9-0.9-1-1.6l-0.1,0.2c0,0-1,2.5,0.8,3.6c0.2,0.1,0.4,0.3,0.6,0.4c0.3-0.1,0.7-0.1,1-0.2
			C633.1,551,632.2,550,630.4,548.9z"/>
		<path d="M644.5,548.2c0.3-0.3,0.3-1,0.1-1.9c-0.4,0.8-0.7,1.8-0.6,2.7C644.1,548.7,644.3,548.4,644.5,548.2z"/>
		<path d="M642.8,502c-0.4,1.1-0.7,2.2-0.8,3.4c0.2-0.8,0.5-1.6,0.8-2.3C642.9,503.1,642.9,502.6,642.8,502z"/>
		<path d="M667.9,497.1c0.1-0.3,0.1-0.7,0.1-1c-0.1,0.7-0.2,1.3-0.3,1.9C667.8,497.7,667.8,497.4,667.9,497.1z"/>
		<path d="M642.6,535c0.2-0.7,0.3-1.4,0.3-2.1c-0.3,0.8-0.5,1.7-0.5,2.6C642.4,535.3,642.5,535.2,642.6,535z"/>
		<path d="M644.9,552.5c-0.6,1.9-1,3.8-1.3,5.7l-11.2,1.3c-1-1.5-1.9-3.1-2.5-4.7c-0.1-0.3-0.2-0.5-0.3-0.8c-0.7,0.3-0.9,1-0.1,3.1
			c0.7,1.7,1.5,3.3,2.5,4.7l11.2-1.3c0,0,0.8-5.8,2-6.9C645.7,552.9,645.4,552.6,644.9,552.5z"/>
		<path d="M630,535.8c0,0,0.1,6.4,1,6.8l0,0c0.5-1.1,0.8-2.1,0.4-2.2c-0.9-0.4-1-6.8-1-6.8s-1.9-7.6-1.4-9.7c0.5-2-1.5-6.9-1.5-6.9
			l-0.6-5.8c-2-3.3-2.7-7.2-2-11.1v-9c0,0-2.6-17.5-3-26.3c-0.2-5.6-0.2-13.4-0.1-18.2c0-0.9,0-1.6,0-2.3h-0.3c0,0,0,1.8-0.1,4.5
			c-0.1,4.8-0.1,12.5,0.1,18.2c0.4,8.8,3,26.3,3,26.3v9c-0.7,3.8,0.1,7.8,2.1,11.1l0.6,5.8c0,0,2,4.9,1.5,6.9
			C628.2,528.2,630,535.8,630,535.8z"/>
		<path d="M663.1,557c-0.9-1.3-1.5-2.8-1.8-4.4c-1.1,1,0.2,5.1,1.4,6.6c1.2,1.6,11,2.7,12.8-0.4v-1.8
			C673,559.6,664.3,558.6,663.1,557z"/>
		<path d="M677.2,546.5c-0.5,0.9-0.9,1.8-1.3,2.8v1.3c0.2-0.5,0.5-1.1,0.9-1.9C677.1,548,677.3,547.2,677.2,546.5L677.2,546.5z"/>
		<path d="M663.7,548c0.4-0.7,0.7-1.5,0.9-2.2c0,0-1.5,0.4-4.1-2.6c-1.8-2.2-1.9-6.2-1.7-8.9c-0.5,1.6-1.2,8.2,1.3,11.1
			C661.8,547.3,663,547.8,663.7,548z"/>
		<path d="M658.8,527.4c0.2,1.8,0.2,3.7,0.2,5.5c0.1-0.4,0.1-0.7,0.2-0.9c0.5-1.5,0-6.9,0-6.9s0.1-3.7-0.6-4.9s-2.3-8.1-2.3-8.1
			s0-2.3-1.3-3.5c-1.3-1.2-2.1-5.9-2.1-5.9c-0.8-1.2-1.1-2.6-0.9-4c0.3-2.3-1.5-4.8-1.5-4.8l-3.2-10l-3-7.5l-1.7,4.4
			c0,0,0,0.5-0.1,1.4l1.4-3.5l3,7.5l3.2,10c0,0,1.9,2.5,1.5,4.8c-0.1,1.4,0.2,2.8,1,4c0,0,0.8,4.7,2.1,5.9c1.3,1.2,1.3,3.5,1.3,3.5
			s1.5,6.9,2.3,8.1C658.9,523.7,658.8,527.4,658.8,527.4z"/>
	</g>
	<path class="st20" d="M666.6,356.6l-0.7,3.4l0,1.5v1.1l-3.9,0.4l-0.4-0.8l0,0c-0.8-1.5-2.5-4.4-3-4.9c-0.7-0.6-2-10-0.5-9.5
		c0.9,0.4,1.7,1.1,2.2,2C660.4,349.9,668,350.7,666.6,356.6z"/>
	<path class="st2" d="M666,362.6l-3.9,0.4l-0.4-0.8l0,0c1.1-1.2,2.9-1.5,4.3-0.7L666,362.6z"/>
	<path class="st21" d="M667,364.4l-5.1,1.2l-0.1-0.8l-0.3-2c1.2-1.6,3.4-1.9,4.9-0.7c0,0,0,0,0,0l0.3,1L667,364.4z"/>
	<path class="st20" d="M584.2,356.9l-5.4,2.9l-0.5-1c-0.5-1.1-1.3-2.7-1.5-3.3c-0.3-0.9-2.6-2-2.6-2c-5.7-5.5,1.1-10.1,1.1-10.1
		c3.6-7.2,7.6,2.5,7.6,2.5s0.6,5.1,0.2,5.5c-0.4,0.3-0.4,1.7-0.4,1.7c0.5,1,1,2,1.3,3.1C584.1,356.6,584.2,356.9,584.2,356.9z"/>
	<path class="st2" d="M584.2,356.9l-5.4,2.9l-0.5-1c0.8-0.6,3.5-2.9,4.4-2.8c0.4,0,0.9,0,1.3,0C584.1,356.6,584.2,356.9,584.2,356.9
		z"/>
	<path class="st21" d="M584.8,358.6l-6.1,3l-0.1-1.3l-0.1-0.9c0,0,3.5-3,4.6-2.9c0.5,0.1,1.1,0.1,1.6,0l0.1,1.1L584.8,358.6z"/>
	<path class="st20" d="M651.8,379.1c0,0-26.7,3-21.7,1.4c3.5-1.1,4.9-3.3,5.2-5.8c0.1-2.1-0.2-4.2-1-6.2c-0.6-1.7-1.4-3.3-2.4-4.8
		c0,0,20.4-11.2,16.3-1c-0.6,1.5-1,3.2-1.2,4.8c-0.1,1.6,0,3.3,0.5,4.9C648.3,375,649.8,377.3,651.8,379.1z"/>
	<path class="st2" d="M648.1,362.6c-0.6,1.5-1,3.2-1.2,4.8c-1.9,1.6-4,1.5-6.7,1.5c-2.1,0-4.4,0.5-6-0.5c-0.6-1.7-1.4-3.3-2.4-4.8
		C631.8,363.7,652.2,352.4,648.1,362.6z"/>
	<circle class="st20" cx="639.9" cy="358.7" r="11.1"/>
	<path class="st2" d="M651.8,379.1c0,0-26.7,3-21.7,1.4c3.5-1.1,4.9-3.3,5.2-5.8c1.3-1.4,4-2.5,5.7-3c1.6-0.5,3.3-0.6,4.8-0.1
		c0.6,0.2,1.2,0.4,1.8,0.8C648.3,374.9,649.7,377.3,651.8,379.1z"/>
	<path class="st2" d="M667,364.4l-5.1,1.2l-0.1-0.8c1.1-1.5,3.1-2.2,4.9-1.7L667,364.4z"/>
	<path class="st2" d="M584.8,358.6l-6.1,3l-0.1-1.3c2-1.1,4.1-2,6.2-2.7L584.8,358.6z"/>
	<path class="st2" d="M662.3,446.4c-10.3,1.6-25.1,3.8-27.4,3c-1.9-0.6-8.1-0.5-13.5-0.3c0-2.7,0.1-4.5,0.1-4.5l40.1-4.2
		C661.7,442.4,661.9,444.4,662.3,446.4z"/>
	<path class="st12" d="M672.7,443.9c0,0-34.1,5.8-37.7,4.7c-3.7-1.1-22.4,0.1-22.4,0.1c-8.4,5.7-4.9-2.7-4.9-2.7s-0.8-4.4,0.3-7.9
		c0.7-2.6,1.1-5.2,1.4-7.9c0,0-0.2-5.6,0.8-6.9c1-1.3,2.2-10.6,2.2-10.6s0.9-6.3,0.8-7.7s0.3-5.3,0.3-5.3l1.2-6.5
		c-6.9-0.9-28.1-13.9-28.1-13.9c-1-4.4-8.9-14.6-8.9-14.6c-0.1-0.9-0.3-1.7-0.6-2.5c-0.6-1.5,7.8-4.5,7.8-4.5s6.2,7.6,7.5,9.7
		s5.8,5.8,5.8,5.8c0.7-0.1,1.4,0,2,0.3h0.1l0,0c1.5,0.6,2.9,1.4,4.2,2.4c2.1-0.1,4.1,0.7,5.7,2.1c0,0,3.8-0.6,4.5,0.1
		c0.6,0.6,3.9,0,3.9,0s3.3-6.9,5.4-4.9c2.1,2,11.2,1.9,11.2,1.9c1.2-1.6,4.1-2.8,6-3.3c1.6-0.5,3.3-0.6,4.8-0.1
		c0.7,0.2,1.3,0.5,1.9,0.9l5.5,5.4c0,0,1.5-2,1.4-2.5c-0.1-0.5,1.9-0.8,1.9-0.8s2.7-0.8,3.7-1.1c1-0.3,2,0.8,2,0.9
		c-0.4-1.3-0.6-2.7-0.5-4.1c0.1-1.2-0.3-2.4-1.1-3.3c3.3-7.9,10.6-1.2,10.6-1.2s0.8,4.4,0.1,6c-0.7,1.7,0.8,5.2,0.6,6.1
		c-0.2,0.9,0.4,2.5,0.4,4.3c-0.2,2.3-0.7,4.5-1.5,6.6c-0.6,1.5-5,4.8-5,4.8s-0.3,5.3-2.2,8.4c-2,3.1-0.8,13.6-0.8,13.6
		s1.9,8.2,4.2,10.8C669.2,429.2,672.7,443.9,672.7,443.9z"/>
	<path class="st2" d="M623,382.9c0,0-1-3.1-2-3.3c-0.9-0.3-1.8-0.7-2.7-1.2l0.6-1.1c0,0,3.5,1,4,2C623.5,380.2,623,382.9,623,382.9z
		"/>
	<path class="st2" d="M604.3,376.1c-0.2,0.9-8.4,1.8-8.4,1.8l4.2-4.2l0,0l0.1,0l0,0C601.7,374.3,603.1,375.1,604.3,376.1z"/>
	<circle class="st22" cx="580.4" cy="363.4" r="0.7"/>
	<circle class="st22" cx="581.4" cy="364.8" r="0.7"/>
	<circle class="st22" cx="582.3" cy="366.2" r="0.7"/>
	<circle class="st22" cx="583.3" cy="367.7" r="0.7"/>
	<circle class="st22" cx="670.8" cy="367.6" r="0.6"/>
	<circle class="st22" cx="670.9" cy="369" r="0.6"/>
	<circle class="st22" cx="671" cy="370.4" r="0.6"/>
	<path class="st2" d="M623,408c-0.1-0.1,20.8,26.3,37.1,11.1C660.1,419.1,634.4,422.6,623,408z"/>
	<path class="st2" d="M611,421.8c0,0,12.5,0.3,13.8,3.9v3.8c-0.7,0.4-1.6,0.4-2.3,0c-1.3-0.7-8.8-4.5-11.5-2.7L611,421.8z"/>
	<path class="st12" d="M611.2,421.8c0,0,12,0.3,13.2,3.8v3.6c-0.7,0.4-1.5,0.4-2.2,0c-1.2-0.7-8.5-4.3-11-2.6V421.8z"/>
	<path class="st2" d="M617.8,394.6c1.3,3,2.9,5.8,4.9,8.3c2.1,2.8,4.7,5.3,7.6,7.3C630.3,410.2,618,396.3,617.8,394.6z"/>
	<path class="st2" d="M613.7,380c0,0,2.1,9,7.5,12.1L613.7,380z"/>
	<path class="st2" d="M610.5,380.9c-0.1-0.2-1.9,7.1,6.9,11.2C617.5,392.1,613.7,390.9,610.5,380.9z"/>
	<path class="st2" d="M665.2,374.9c-0.1,0,4.3,2.9,5.6,4.2C670.8,379.1,667.9,374.7,665.2,374.9z"/>
	<path class="st18" d="M636.9,368.7c0.1,0.6,0.4,1.1,0.9,1.5c0.3,0.2,0.7,0.2,1,0.2c3.4,0.2,6.9,0.4,10-0.9c0.6-0.2,1.1-0.6,1.5-1
		c0.4-0.7,0.7-1.6,0.8-2.4c0.4-1.7,1.4-3.1,2-4.7c1.1-2.7,1.5-5.6,1.1-8.4c-0.1-0.9-0.4-1.7-0.8-2.5c-0.9-1.3-2.5-1.8-3.7-2.8
		s-1.9-2.6-3.3-3.3c-1.3-0.6-2.8-0.7-4.2-0.4c-2.8,0.5-5.4,1.5-7.8,2.9c-0.8,0.5-1.7,1.1-2.6,0.9c-0.8-0.3-1.5-0.8-1.9-1.5
		c-0.7,1.5-0.9,3.2-0.8,4.8c0,0.2,0,0.5,0,0.7c-0.1,0.3-0.3,0.6-0.5,0.8c-0.8,1-1.4,2.5-0.5,3.5c0.4,0.4,0.9,0.7,1.3,1.1
		c0.6,0.8,0.4,1.9,0.4,2.9c0,0.3,0.1,0.7,0.2,1c0.4,0.3,0.9,0.5,1.4,0.3c0.5-0.1,1-0.2,1.5-0.1c0.5,0.2,1,0.5,1.3,1
		C635.6,364.1,636.2,366.3,636.9,368.7z"/>
	<g class="st23">
		<path d="M650.6,367.6c-0.4,0.5-1,0.8-1.5,1c-3.1,1.3-6.6,1.1-10,0.9c-0.4,0-0.7-0.1-1-0.2c-0.5-0.4-0.8-0.9-0.9-1.5
			c-0.7-2.4-1.3-4.6-2.8-6.5c-0.3-0.5-0.7-0.8-1.3-1c-0.5,0-1,0-1.5,0.1c-0.5,0.1-1,0-1.4-0.3c-0.2-0.3-0.3-0.6-0.2-1
			c0-1,0.2-2.1-0.4-2.9c-0.3-0.4-0.9-0.7-1.3-1.1c-0.5-0.6-0.6-1.5-0.2-2.2c-0.6,0.9-0.8,2.1-0.2,3c0.4,0.4,0.9,0.7,1.3,1.1
			c0.6,0.8,0.4,1.9,0.4,2.9c0,0.3,0.1,0.7,0.2,1c0.4,0.3,0.9,0.5,1.4,0.3c0.5-0.1,1-0.2,1.5-0.1c0.5,0.2,1,0.5,1.3,1
			c1.5,2,2.2,4.2,2.8,6.5c0.1,0.6,0.4,1.1,0.9,1.5c0.3,0.2,0.7,0.2,1,0.2c3.4,0.2,6.9,0.4,10-0.9c0.6-0.2,1.1-0.6,1.5-1
			c0.2-0.3,0.4-0.6,0.5-0.9C650.7,367.5,650.7,367.5,650.6,367.6z"/>
		<path d="M629.2,351.5c0.2-0.2,0.3-0.4,0.3-0.6c0-0.2,0-0.5,0-0.7c-0.1-1.4,0.1-2.7,0.5-4l-0.1-0.1c-0.7,1.5-0.9,3.2-0.8,4.8
			C629.2,351.1,629.2,351.3,629.2,351.5z"/>
	</g>
	<path class="st2" d="M634.9,375.4c0,0,13.8,1.8,15-0.2"/>
	<path class="st2" d="M661.8,369.6c0,0,7.7,0,9.4,2.9"/>
</g>
</svg>
