<svg xmlns="http://www.w3.org/2000/svg" viewBox="0 0 595.94 80"><defs><style>.a{fill:#161e2e;stroke:#000;stroke-miterlimit:10;stroke-width:0.25px;}.b{fill:#f15c2c;}</style></defs><title>Full Color copy</title><path class="a" d="M60.51,71.25Q52,80,36,80T11.39,71.25Q0,60.52,0,40.34,0,19.74,11.39,9.42,19.88.67,36,.68T60.51,9.42Q71.85,19.74,71.85,40.34,71.85,60.53,60.51,71.25ZM50.72,59.86Q56.18,53,56.19,40.34t-5.47-19.5Q45.26,13.94,36,14A18.13,18.13,0,0,0,21.1,20.81q-5.54,6.87-5.54,19.53T21.1,59.86A18.11,18.11,0,0,0,36,66.73Q45.25,66.73,50.72,59.86Z"/><path class="a" d="M77.55,3.07H131V16.24H93.11V33.47h33.2v13H93.11V77.91H77.55Z"/><path class="a" d="M136,3.07H189.4V16.24H151.51V33.47h33.21v13H151.51V77.91H136Z"/><path class="a" d="M194.36,3H210V64.44h37.42V77.91H194.36Z"/><path class="a" d="M268.09,77.91H252.53V3h15.56Z"/><path class="a" d="M275,3H291.4l29.76,52.27V3h14.59v75H320.09L289.58,24.73V77.91H275Z"/><path class="a" d="M397.33,16.24H357.67V32.15h36.41v13H357.67V64.44h41.49V77.91h-56.8V3h55Z"/><path class="b" d="M403.88,62.67q3.25-7.74,15.4-16.41,10.53-7.55,13.63-10.8a16,16,0,0,0,4.76-11.13A12.37,12.37,0,0,0,435,16.15q-2.73-3.25-7.81-3.26-7,0-9.47,5.19c-1,2-1.53,5.17-1.71,9.51H401.15q.38-9.89,3.59-16Q410.83,0,426.42,0,438.72,0,446,6.82t7.28,18.05a24.4,24.4,0,0,1-5.15,15.29q-3.37,4.44-11.09,9.89L431,54.39q-5.74,4.06-7.85,5.88a17.14,17.14,0,0,0-3.55,4.22H453.4V77.91H400.29A36.5,36.5,0,0,1,403.88,62.67Z"/><path class="b" d="M518.39,71.25Q509.9,80,493.83,80t-24.56-8.75q-11.4-10.73-11.39-30.91,0-20.6,11.39-30.92Q477.76.67,493.83.68t24.56,8.74q11.34,10.32,11.34,30.92Q529.73,60.53,518.39,71.25ZM508.6,59.86q5.46-6.86,5.47-19.52t-5.47-19.5q-5.46-6.9-14.77-6.89A18.11,18.11,0,0,0,479,20.81q-5.53,6.87-5.54,19.53T479,59.86a18.09,18.09,0,0,0,14.85,6.87Q503.13,66.73,508.6,59.86Z"/><path class="b" d="M535.17,3h16.42l29.75,52.27V3h14.6v75H580.28L549.77,24.73V77.91h-14.6Z"/></svg>