<svg xmlns="http://www.w3.org/2000/svg" viewBox="0 0 298.95 296.94"><defs><style>.a{fill:#ff5b1f;}</style></defs><title>icons</title><path class="a" d="M291.91,251.47l-87-87h.84L297.16,73,284.44,60.25l-87,87-39,4.29L33,276.94a9,9,0,0,1-12.6-12.75l125.4-125.37,4.32-39,87-87L224.41.19,133,91.63v.84L51,10.6l-18,18a51.57,51.57,0,0,0,0,72.87l62.43,62.4L7.72,251.44a27,27,0,0,0,38.16,38.19l87.75-87.72,10,10,34,1.56,76.2,76.2a27,27,0,0,0,38.16-38.16ZM45.42,88.39a33.57,33.57,0,0,1,0-47.4l5.16-5.16,79.26,79.32-1.68,15L107.7,150.73ZM278.7,276.67a9.25,9.25,0,0,1-12.72,0l-81-81.15L151.05,194l-5-5,20.49-20.46,15-1.68L278.7,264A9,9,0,0,1,278.7,276.67Z"/><rect class="a" x="167.51" y="65.77" width="108.69" height="18" transform="translate(12.11 178.78) rotate(-45)"/></svg>