<svg xmlns="http://www.w3.org/2000/svg" viewBox="0 0 300 281"><defs><style>.a{fill:#ff5b1f;}</style></defs><title>icons</title><path class="a" d="M277.06,281.5H23.94A23.43,23.43,0,0,1,.5,258.06V23.94A23.43,23.43,0,0,1,23.94.5H277.06A23.43,23.43,0,0,1,300.5,23.94V258.06A23.43,23.43,0,0,1,277.06,281.5ZM10.5,23.56V258.44A14.07,14.07,0,0,0,24.56,272.5H277.44a14.07,14.07,0,0,0,14.06-14.06V23.56A14.07,14.07,0,0,0,277.44,9.5H24.56A14.07,14.07,0,0,0,10.5,23.56Z"/><rect class="a" x="5.5" y="37.5" width="291" height="9"/><rect class="a" x="19.5" y="19.5" width="9" height="9"/><rect class="a" x="38.5" y="19.5" width="9" height="9"/><rect class="a" x="57.5" y="19.5" width="9" height="9"/><rect class="a" x="272.5" y="19.5" width="9" height="9"/><path class="a" d="M277.81,178.5H239.5v-9h33V65.5H29.5v104h173v9H24.19a4.69,4.69,0,0,1-4.69-4.69V61.19a4.69,4.69,0,0,1,4.69-4.69H277.81a4.69,4.69,0,0,1,4.69,4.69V173.81A4.69,4.69,0,0,1,277.81,178.5Z"/><rect class="a" x="24.5" y="80.5" width="253" height="9"/><path class="a" d="M277.81,262.5H118.19a4.69,4.69,0,0,1-4.69-4.69V192.19a4.69,4.69,0,0,1,4.69-4.69H207.5v10h-85v56h150v-56h-28v-10h33.31a4.69,4.69,0,0,1,4.69,4.69v65.62A4.69,4.69,0,0,1,277.81,262.5Z"/><path class="a" d="M236.62,215.8a4.66,4.66,0,0,1-3.33-1.36L221,202.11l-6,6a4.68,4.68,0,0,1-6.63,0,4.84,4.84,0,0,1-1.11-1.74l-18.75-50a4.7,4.7,0,0,1,2.72-6,4.77,4.77,0,0,1,3.33,0l50,18.75a4.69,4.69,0,0,1,2.74,6,4.58,4.58,0,0,1-1.06,1.65L240.13,183l12.33,12.33a4.68,4.68,0,0,1,0,6.61l-12.7,12.51A4.65,4.65,0,0,1,236.62,215.8Zm-15.61-25a4.65,4.65,0,0,1,3.32,1.36l12.33,12.33,5.86-5.86-12.14-12.33a4.68,4.68,0,0,1,0-6.61l4.22-4.22-33.52-12.56,12.57,33.51,4.22-4.22A4.66,4.66,0,0,1,221,190.82Z"/><path class="a" d="M98.81,262.5H24.19a4.69,4.69,0,0,1-4.69-4.69V192.19a4.69,4.69,0,0,1,4.69-4.69H98.81a4.69,4.69,0,0,1,4.69,4.69v65.62A4.69,4.69,0,0,1,98.81,262.5Zm-70.31-9h66v-56h-66Z"/><path class="a" d="M43.25,149.5H24.5v-9H41.33l36.14-34.69a4.82,4.82,0,0,1,6.61,0l37.5,36L115,148.15,80.75,115.34,46.58,148.19A4.75,4.75,0,0,1,43.25,149.5Z"/><path class="a" d="M107.39,134.69l-6.61-6.34,28.13-27a4.84,4.84,0,0,1,6.61,0l22,21.15h120v9H155.62a4.73,4.73,0,0,1-3.32-1.31l-20.11-19.35Z"/><rect class="a" x="38.5" y="211.5" width="9" height="9"/><rect class="a" x="57.5" y="211.5" width="28" height="9"/><rect class="a" x="38.5" y="230.5" width="47" height="9"/></svg>