<svg xmlns="http://www.w3.org/2000/svg" viewBox="0 0 222.02 293.69"><defs><style>.a{fill:#ff5b1f;}</style></defs><title>ico-form</title><path class="a" d="M222,8a8,8,0,0,0-8-8H8A8,8,0,0,0,0,8V285.72a8,8,0,0,0,8,8h152.3a7.93,7.93,0,0,0,4.43-1.33,8.24,8.24,0,0,0,1.21-1l53.76-53.76a6.75,6.75,0,0,0,.7-.82l.14-.18a8.24,8.24,0,0,0,1-1.85,2.25,2.25,0,0,0,.08-.24,5.82,5.82,0,0,0,.26-.93l0-.18a7.9,7.9,0,0,0,.11-.85c0-.12,0-.25,0-.37s0-.15,0-.22Zm-53.76,232h26.52l-26.52,26.52Zm-8-16a8,8,0,0,0-8,8v1H91.13a8,8,0,1,0,0,16h61.18v28.84H16V16H206.06V224Z"/><path class="a" d="M191.64,26.88H30.37a8,8,0,0,0-8,8V61.73a8,8,0,0,0,8,8H191.64a8,8,0,0,0,8-8V34.85A8,8,0,0,0,191.64,26.88ZM38.35,53.76V42.83H183.66V53.76Z"/><path class="a" d="M66.21,80.63H30.37a8,8,0,0,0-8,8v35.84a8,8,0,0,0,8,8H66.21a8,8,0,0,0,8-8V88.61A8,8,0,0,0,66.21,80.63ZM38.35,116.47V96.59H58.23v19.88Z"/><path class="a" d="M66.21,143.35H30.37a8,8,0,0,0-8,8v35.83a8,8,0,0,0,8,8H66.21a8,8,0,0,0,8-8V151.33A8,8,0,0,0,66.21,143.35ZM38.35,179.19V159.3H58.23v19.89Z"/><path class="a" d="M66.21,206.06H30.37a8,8,0,0,0-8,8v35.84a8,8,0,0,0,8,8H66.21a8,8,0,0,0,8-8V214A8,8,0,0,0,66.21,206.06ZM38.35,241.9V222H58.23V241.9Z"/><path class="a" d="M91.13,98.55H162.8a8,8,0,0,0,0-16H91.13a8,8,0,1,0,0,16Z"/><path class="a" d="M91.13,123.47h97.51a8,8,0,1,0,0-16H91.13a8,8,0,1,0,0,16Z"/><path class="a" d="M91.13,161.26H162.8a8,8,0,1,0,0-15.95H91.13a8,8,0,1,0,0,15.95Z"/><path class="a" d="M190.64,170.23H90.13a8,8,0,1,0,0,16H190.64a8,8,0,1,0,0-16Z"/><path class="a" d="M149.37,208H91.13a8,8,0,0,0,0,16h58.24a8,8,0,0,0,0-16Z"/></svg>