<svg xmlns="http://www.w3.org/2000/svg" viewBox="0 0 291.61 270"><defs><style>.a{fill:#ff5b1f;}</style></defs><title>icons</title><path class="a" d="M133.82,240a7.7,7.7,0,0,0,7.73-6.56A7.51,7.51,0,0,0,134.1,225H20.39a4.09,4.09,0,0,1-4.09-4.09h0V72h230v40.46a7.69,7.69,0,0,0,6.56,7.72,7.49,7.49,0,0,0,8.44-7.44V20.05A19.08,19.08,0,0,0,242.21,1H19.4A19.09,19.09,0,0,0,.3,20.05V220.92A19.08,19.08,0,0,0,19.38,240H133.82ZM19.39,16H242.22a4.09,4.09,0,0,1,4.08,4.11h0V58H15.3V20.08A4.1,4.1,0,0,1,19.39,16Z"/><path class="a" d="M287,213.22l-68.37-25.11a7.5,7.5,0,0,0-9.63,9.63l25.11,68.37a7.51,7.51,0,0,0,6.51,4.89h.54a7.49,7.49,0,0,0,6.6-4l10.35-19.26,18.31,18.31a7.71,7.71,0,0,0,10.12.82,7.5,7.5,0,0,0,.7-11.24l-18.51-18.51L288,226.81a7.5,7.5,0,0,0-1-13.65Zm-44.58,31.85-13.77-37.5,37.5,13.77-13.44,7.23a7.53,7.53,0,0,0-3,3Z"/><path class="a" d="M270.82,151.5,258.31,164a7.51,7.51,0,0,0,10.62,10.62l12.45-12.54a7.51,7.51,0,0,0-10.62-10.62h0Z"/><path class="a" d="M177.85,262.56a7.51,7.51,0,0,0,5.31-2.19l12.51-12.51a7.51,7.51,0,1,0-10.62-10.62l-12.48,12.57a7.5,7.5,0,0,0,5.31,12.81Z"/><path class="a" d="M195.67,164,183.16,151.5a7.51,7.51,0,0,0-10.62,10.62l12.51,12.51A7.51,7.51,0,1,0,195.67,164Z"/><path class="a" d="M219.3,136.44v17.38a7.69,7.69,0,0,0,6.56,7.73,7.5,7.5,0,0,0,8.44-7.44V136.72a7.7,7.7,0,0,0-6.56-7.73A7.51,7.51,0,0,0,219.3,136.44Z"/><path class="a" d="M174.9,198H157.8a7.68,7.68,0,0,0-7.73,6.56,7.5,7.5,0,0,0,7.44,8.44h17.67a7.51,7.51,0,0,0,7.45-8.44A7.7,7.7,0,0,0,174.9,198Z"/><path class="a" d="M219.59,104.44A7.51,7.51,0,0,0,212.14,96H47.8a7.5,7.5,0,0,0-7.5,7.5v91a7.5,7.5,0,0,0,7.5,7.5H125a7.7,7.7,0,0,0,7.73-6.56,7.51,7.51,0,0,0-7.45-8.44H55.3V111H211.86A7.7,7.7,0,0,0,219.59,104.44Z"/><circle class="a" cx="38.5" cy="37.74" r="8.37"/><circle class="a" cx="67.09" cy="37.74" r="8.37"/><circle class="a" cx="95.65" cy="37.74" r="8.37"/></svg>