<svg xmlns="http://www.w3.org/2000/svg" viewBox="0 0 209.87 241.93"><defs><style>.a{fill:#ff5b1f;}</style></defs><title>icons</title><path class="a" d="M171.59,238H60.87V44.66L32.58,11.27A6.81,6.81,0,1,1,42.86,2.35l32,37.22V224h96.72a6.58,6.58,0,0,1,6.81,6.64A7.71,7.71,0,0,1,171.59,238Z"/><circle class="a" cx="25.98" cy="215.95" r="25.98"/><path class="a" d="M198.87,182v24h-106V182h106m11-11h-128v46h128V171Z"/><path class="a" d="M137.87,136v17h-45V136h45m11-11h-67v39h67V125Z"/><path class="a" d="M149.87,97v10h-56V97h56m11-11h-78v32h78V86Z"/><path class="a" d="M122.87,24V68h-29V24h29m11-11h-51V79h51V13Z"/></svg>