<svg xmlns="http://www.w3.org/2000/svg" viewBox="0 0 266 285"><defs><style>.a{fill:#ff5b1f;}</style></defs><title>icons</title><path class="a" d="M264.23,73.72,220.2,3.6A7.85,7.85,0,0,0,213.41,0H52a8.65,8.65,0,0,0-6.8,3.6l-44,70.12A7.36,7.36,0,0,0,0,78.22v27a39.24,39.24,0,0,0,13,29.07V276.9a8.1,8.1,0,0,0,8.1,8.1H244.9a8.1,8.1,0,0,0,8.1-8.1V134a38.75,38.75,0,0,0,13-29.07v-27A16.53,16.53,0,0,0,264.23,73.72ZM57.29,16h150.9l34.5,54H23.09ZM226,127a23.06,23.06,0,0,1-23-23.1V85h46v18.9A23.06,23.06,0,0,1,226,127Zm-39-23.1A23.06,23.06,0,0,1,163.58,127c-12.64-.23-22.58-11-22.58-23.61V85h46Zm-62,0a23,23,0,1,1-46,0V85h46v18.9Zm-109,0V85H62v18.9a23,23,0,1,1-46,0ZM159,268V184h38v84Zm77,0H213V176.1a8.1,8.1,0,0,0-8.1-8.1H151.1a8.1,8.1,0,0,0-8.1,8.1V268H29V142a37.72,37.72,0,0,0,9.9,1.5,39.35,39.35,0,0,0,31.2-15.6,39,39,0,0,0,62.4,0,39,39,0,0,0,62.4,0,39.35,39.35,0,0,0,31.2,15.6A34.26,34.26,0,0,0,236,142V268Z"/><path class="a" d="M110.9,168H61.1a8.1,8.1,0,0,0-8.1,8.1v48.8a8.1,8.1,0,0,0,8.1,8.1h49.8a8.1,8.1,0,0,0,8.1-8.1V176.1A8.1,8.1,0,0,0,110.9,168ZM102,217H69V184h33Z"/></svg>