<svg xmlns="http://www.w3.org/2000/svg" viewBox="0 0 297.6 297.6"><defs><style>.a{fill:#ff5b1f;}</style></defs><title>ico-search</title><path class="a" d="M115.41,230.94a114.6,114.6,0,0,0,76.65-29.13l11.51,11.53,0,.06a17.94,17.94,0,0,0,0,25.4L257,292.27a18,18,0,0,0,25.43,0l9.89-9.91a18,18,0,0,0,0-25.44l-53.51-53.43a18.37,18.37,0,0,0-25.43,0l-.05,0L201.84,192A115.42,115.42,0,0,0,33.77,33.92a115.44,115.44,0,0,0,.09,163.26A114.61,114.61,0,0,0,115.41,230.94Zm110.7-18.88a4.13,4.13,0,0,1,2.93,1.22l53.52,53.45a4.13,4.13,0,0,1,0,5.86l-9.87,9.89a4.22,4.22,0,0,1-5.86,0L213.29,229a4,4,0,0,1-1.18-2.87,4.07,4.07,0,0,1,1.2-2.92l9.89-9.92A4.07,4.07,0,0,1,226.11,212.06ZM43.57,43.7A101.58,101.58,0,0,1,187.34,187.25s0,0,0,0l0,0A101.59,101.59,0,0,1,43.57,43.7Z"/><path class="a" d="M48.84,162.33a81.43,81.43,0,0,0,148.07-46.78h0v0A81.47,81.47,0,1,0,48.35,161.65,6.51,6.51,0,0,0,48.84,162.33Zm-1-46.83c0-2.09.12-4.15.32-6.2a45.13,45.13,0,0,1,10.69-2.8l.91-.1C54.52,114,52.39,124.72,58,132.63c.31.44.65.88,1,1.31l.52.65c0,.32.07.67.11,1-.51.56-1.13,1.16-1.77,1.8a61.59,61.59,0,0,0-4.49,4.85A67.13,67.13,0,0,1,47.82,115.5Zm93.51,62.44c-6.47,0-8-1.21-9.52-2.48a3.31,3.31,0,0,1-1.21-1.64,11.7,11.7,0,0,1,1.56-2.56L133,170a37.51,37.51,0,0,0,6.33-19.85,6.93,6.93,0,0,0-1.07-3.86c-6.34-10-18.41-5.42-26.4-2.38-.85.32-1.84.7-2.87,1.07a13,13,0,0,0,2.06-7.52c-.21-5.7-4.21-12.07-10.51-13.63a14.2,14.2,0,0,0,9.82-5.39c6.37-7.53-.06-16.28-3.51-21-.61-.82-1.2-1.62-1.69-2.35l-.34-.51c-1.84-2.78-4.37-6.58-3.81-8.41.36-1.21,2.46-2.81,3.13-3.33a48.44,48.44,0,0,1,13.09-7.07c6.33-2.27,17-6.07,17.75-16.51a23.16,23.16,0,0,0-1-8.74,67,67,0,0,1,18,8.18L138.3,78c-5.46,7.66-3.73,13.83-.25,17.09A12.63,12.63,0,0,0,144.19,98a49.38,49.38,0,0,0,7.86,1,25.87,25.87,0,0,1-1.3,9,6.93,6.93,0,0,0,1.27,6.59c.82,1,7,8.06,13.3,8.06a7.86,7.86,0,0,0,4-1.07c1.38-.79,2.64-2,5.13-4.46.69-.68,1.7-1.69,2.64-2.57l1.45,1.41a41.21,41.21,0,0,0,4.33,3.86A67.7,67.7,0,0,1,141.33,177.94Zm40-77.4a10,10,0,0,0-5-1.08c-3.62.12-6.36,2.53-11,7.11a40.18,40.18,0,0,0,.48-9.75c-.48-6.23-3.45-9.06-5.84-10.35a12.53,12.53,0,0,0-6.18-1.32c-1.13,0-2.24-.08-3.41-.21L162.88,67.4A67.44,67.44,0,0,1,181.33,100.54Zm-65.9-52.65c.18,0,.35,0,.52,0s.15.18.24.27c4.75,4.39,5.22,7.43,5,10.05-.11,1.49-6.51,3.78-9,4.66a61.25,61.25,0,0,0-16.47,9c-2.94,2.25-6.5,5.46-8,10.29-2.44,8.08,2.17,15,5.54,20.1l.33.49c.6.91,1.3,1.89,2.06,2.92a44.69,44.69,0,0,1,3,4.41,21.13,21.13,0,0,1-5.07-1.19c-4.29-1.35-9.51.38-13.29,4.44s-5,9.2-3.19,13.75c2.34,5.94,9,9.37,19.79,10.21.15.19.31.43.36.33a16.54,16.54,0,0,1-2.71,2.79c-2.46,2.22-5.52,5-6.92,9.2a6.94,6.94,0,0,0,1.89,7.28c8,7.31,18.66,3.23,27.26,0a65.32,65.32,0,0,1,8.18-2.72,23.13,23.13,0,0,1-3.46,8.12l-.7,1a19.7,19.7,0,0,0-3.93,8.39,15.15,15.15,0,0,0,3,11.24c-1.48.09-3,.22-4.47.22a67.49,67.49,0,0,1-54-27.11c.71-3.08,3-5.57,6.2-8.77a36,36,0,0,0,4.46-5c2-2.92,1.57-6.27,1.3-8.28l-.07-.52c-.08-3.82-2.18-6.48-3.43-8.07l-.58-.76c-1.73-2.43-.42-7.85,3.11-12,1.68-1.94,4.5-5.19,4.15-9.9a11.4,11.4,0,0,0-8-9.86c-3-1-8-.59-11.61-.09-1.86.24-3.71.61-5.53,1A67.68,67.68,0,0,1,115.43,47.89Z"/></svg>